<?xml version="1.0" encoding="UTF-8" standalone="no"?>
<!-- Creator: CorelDRAW X8 -->

<svg
   xmlns:dc="http://purl.org/dc/elements/1.1/"
   xmlns:cc="http://creativecommons.org/ns#"
   xmlns:rdf="http://www.w3.org/1999/02/22-rdf-syntax-ns#"
   xmlns:svg="http://www.w3.org/2000/svg"
   xmlns="http://www.w3.org/2000/svg"
   xmlns:sodipodi="http://sodipodi.sourceforge.net/DTD/sodipodi-0.dtd"
   xmlns:inkscape="http://www.inkscape.org/namespaces/inkscape"
   xml:space="preserve"
   width="3600"
   height="1549.1443"
   version="1.1"
   style="clip-rule:evenodd;fill-rule:evenodd;image-rendering:optimizeQuality;shape-rendering:geometricPrecision;text-rendering:geometricPrecision"
   viewBox="0 0 3600 1549.1443"
   id="svg109"
   sodipodi:docname="01.svg"
   inkscape:version="0.92.1 r15371"><metadata
     id="metadata113"><rdf:RDF><cc:Work
         rdf:about=""><dc:format>image/svg+xml</dc:format><dc:type
           rdf:resource="http://purl.org/dc/dcmitype/StillImage" /><dc:title></dc:title></cc:Work></rdf:RDF></metadata><sodipodi:namedview
     pagecolor="#ffffff"
     bordercolor="#666666"
     borderopacity="1"
     objecttolerance="10"
     gridtolerance="10"
     guidetolerance="10"
     inkscape:pageopacity="0"
     inkscape:pageshadow="2"
     inkscape:window-width="640"
     inkscape:window-height="480"
     id="namedview111"
     showgrid="false"
     fit-margin-top="0"
     fit-margin-left="0"
     fit-margin-right="0"
     fit-margin-bottom="0"
     inkscape:zoom="0.099915326"
     inkscape:cx="1800"
     inkscape:cy="759.80985"
     inkscape:window-x="0"
     inkscape:window-y="0"
     inkscape:window-maximized="0"
     inkscape:current-layer="svg109" /><defs
     id="defs7"><style
       type="text/css"
       id="style2"><![CDATA[
    .str2 {stroke:#5489C7;stroke-width:23.6197}
    .str1 {stroke:#FEFEFE;stroke-width:82.6689}
    .str0 {stroke:#D9DADA;stroke-width:118.098;stroke-linecap:round;stroke-linejoin:round}
    .fil2 {fill:none}
    .fil1 {fill:#898989}
    .fil0 {fill:#C2E1FF;fill-rule:nonzero;fill-opacity:0.501961}
    .fil3 {fill:#5286C4;fill-opacity:0.901961}
   ]]></style><clipPath
       id="id0"><path
         d="m 1858,1143 h 1525 v 786 H 1858 Z"
         id="path4"
         inkscape:connector-curvature="0" /></clipPath></defs><g
     id="Слой_x0020_1"
     transform="translate(-1,-391.66555)"><metadata
       id="CorelCorpID_0Corel-Layer" /><g
       id="_2208207457248"><path
         class="fil0"
         d="m 603,593 v 634 c 0,74 30,141 78,189 48,49 115,78 189,78 h 524 v 83 H 870 c -97,0 -184,-39 -247,-102 -64,-64 -103,-151 -103,-248 V 593 Z"
         id="path10"
         inkscape:connector-curvature="0"
         style="fill:#c2e1ff;fill-opacity:0.5019609;fill-rule:nonzero" /><path
         class="fil1"
         d="m 1422,1434 h 23 c 11,0 20,9 20,21 v 162 c 0,11 -9,20 -20,20 h -23 c -45,0 -81,-36 -81,-81 v -41 c 0,-44 36,-81 81,-81 z"
         id="path12"
         inkscape:connector-curvature="0"
         style="fill:#898989" /><path
         class="fil2 str0"
         d="m 1485,1650 c -27,-35 -42,-74 -42,-114 0,-40 15,-80 42,-115"
         id="path14"
         inkscape:connector-curvature="0"
         style="fill:none;stroke:#d9dada;stroke-width:118.09799957;stroke-linecap:round;stroke-linejoin:round" /><path
         class="fil2 str1"
         d="m 1766,1660 c -33,33 -77,52 -124,52 -97,0 -176,-79 -176,-176 0,-97 79,-176 176,-176 47,0 91,18 124,51"
         id="path16"
         inkscape:connector-curvature="0"
         style="fill:none;stroke:#fefefe;stroke-width:82.66889954" /><g
         id="g18" /><g
         clip-path="url(#id0)"
         id="g97"><g
           id="_2208207459744"><g
             id="g94"><path
               class="fil3"
               d="m 2181,1073 c 51,0 92,41 92,92 0,51 -41,92 -92,92 -50,0 -91,-41 -91,-92 0,-51 41,-92 91,-92 z"
               id="path20"
               inkscape:connector-curvature="0"
               style="fill:#5286c4;fill-opacity:0.90196102" /><path
               class="fil3"
               d="m 2544,1278 c 51,0 92,41 92,91 0,51 -41,92 -92,92 -51,0 -92,-41 -92,-92 0,-50 41,-91 92,-91 z"
               id="path22"
               inkscape:connector-curvature="0"
               style="fill:#5286c4;fill-opacity:0.90196102" /><path
               class="fil3"
               d="m 2715,1759 c 50,0 91,41 91,91 0,51 -41,92 -91,92 -51,0 -92,-41 -92,-92 0,-50 41,-91 92,-91 z"
               id="path24"
               inkscape:connector-curvature="0"
               style="fill:#5286c4;fill-opacity:0.90196102" /><path
               class="fil3"
               d="m 2409,1790 c 50,0 91,41 91,92 0,50 -41,91 -91,91 -51,0 -92,-41 -92,-91 0,-51 41,-92 92,-92 z"
               id="path26"
               inkscape:connector-curvature="0"
               style="fill:#5286c4;fill-opacity:0.90196102" /><path
               class="fil3"
               d="m 2829,1384 c 51,0 92,41 92,91 0,51 -41,92 -92,92 -50,0 -91,-41 -91,-92 0,-50 41,-91 91,-91 z"
               id="path28"
               inkscape:connector-curvature="0"
               style="fill:#5286c4;fill-opacity:0.90196102" /><path
               class="fil3"
               d="m 2786,1246 c 50,0 91,41 91,92 0,51 -41,92 -91,92 -51,0 -92,-41 -92,-92 0,-51 41,-92 92,-92 z"
               id="path30"
               inkscape:connector-curvature="0"
               style="fill:#5286c4;fill-opacity:0.90196102" /><path
               class="fil3"
               d="m 2502,1678 c 51,0 92,41 92,91 0,51 -41,92 -92,92 -50,0 -91,-41 -91,-92 0,-50 41,-91 91,-91 z"
               id="path32"
               inkscape:connector-curvature="0"
               style="fill:#5286c4;fill-opacity:0.90196102" /><path
               class="fil3"
               d="m 2937,1096 c 51,0 92,41 92,91 0,51 -41,92 -92,92 -50,0 -91,-41 -91,-92 0,-50 41,-91 91,-91 z"
               id="path34"
               inkscape:connector-curvature="0"
               style="fill:#5286c4;fill-opacity:0.90196102" /><path
               class="fil3"
               d="m 2901,1705 c 50,0 91,41 91,92 0,51 -41,92 -91,92 -51,0 -92,-41 -92,-92 0,-51 41,-92 92,-92 z"
               id="path36"
               inkscape:connector-curvature="0"
               style="fill:#5286c4;fill-opacity:0.90196102" /><path
               class="fil3"
               d="m 2964,1819 c 51,0 92,41 92,92 0,50 -41,91 -92,91 -51,0 -92,-41 -92,-91 0,-51 41,-92 92,-92 z"
               id="path38"
               inkscape:connector-curvature="0"
               style="fill:#5286c4;fill-opacity:0.90196102" /><path
               class="fil3"
               d="m 2513,1134 c 50,0 91,41 91,92 0,50 -41,91 -91,91 -51,0 -92,-41 -92,-91 0,-51 41,-92 92,-92 z"
               id="path40"
               inkscape:connector-curvature="0"
               style="fill:#5286c4;fill-opacity:0.90196102" /><path
               class="fil3"
               d="m 2414,1097 c 61,0 110,48 110,109 0,60 -49,109 -110,109 -60,0 -109,-49 -109,-109 0,-61 49,-109 109,-109 z"
               id="path42"
               inkscape:connector-curvature="0"
               style="fill:#5286c4;fill-opacity:0.90196102" /><path
               class="fil3"
               d="m 2571,1743 c 60,0 109,49 109,109 0,60 -49,109 -109,109 -61,0 -110,-49 -110,-109 0,-60 49,-109 110,-109 z"
               id="path44"
               inkscape:connector-curvature="0"
               style="fill:#5286c4;fill-opacity:0.90196102" /><path
               class="fil3"
               d="m 2635,1596 c 61,0 109,49 109,110 0,60 -48,109 -109,109 -60,0 -109,-49 -109,-109 0,-61 49,-110 109,-110 z"
               id="path46"
               inkscape:connector-curvature="0"
               style="fill:#5286c4;fill-opacity:0.90196102" /><path
               class="fil3"
               d="m 2657,1142 c 61,0 109,49 109,109 0,60 -48,109 -109,109 -60,0 -109,-49 -109,-109 0,-60 49,-109 109,-109 z"
               id="path48"
               inkscape:connector-curvature="0"
               style="fill:#5286c4;fill-opacity:0.90196102" /><path
               class="fil3"
               d="m 2650,1056 c 60,0 109,49 109,109 0,60 -49,109 -109,109 -60,0 -109,-49 -109,-109 0,-60 49,-109 109,-109 z"
               id="path50"
               inkscape:connector-curvature="0"
               style="fill:#5286c4;fill-opacity:0.90196102" /><path
               class="fil3"
               d="m 2837,1752 c 61,0 110,49 110,109 0,60 -49,109 -110,109 -60,0 -109,-49 -109,-109 0,-60 49,-109 109,-109 z"
               id="path52"
               inkscape:connector-curvature="0"
               style="fill:#5286c4;fill-opacity:0.90196102" /><path
               class="fil3"
               d="m 2816,1116 c 60,0 109,49 109,109 0,60 -49,109 -109,109 -61,0 -110,-49 -110,-109 0,-60 49,-109 110,-109 z"
               id="path54"
               inkscape:connector-curvature="0"
               style="fill:#5286c4;fill-opacity:0.90196102" /><path
               class="fil3"
               d="m 2301,1097 c 36,0 65,29 65,65 0,35 -29,65 -65,65 -36,0 -65,-30 -65,-65 0,-36 29,-65 65,-65 z"
               id="path56"
               inkscape:connector-curvature="0"
               style="fill:#5286c4;fill-opacity:0.90196102" /><path
               class="fil3"
               d="m 3026,1107 c 36,0 65,29 65,65 0,36 -29,65 -65,65 -36,0 -65,-29 -65,-65 0,-36 29,-65 65,-65 z"
               id="path58"
               inkscape:connector-curvature="0"
               style="fill:#5286c4;fill-opacity:0.90196102" /><path
               class="fil3"
               d="m 2899,1232 c 36,0 65,29 65,65 0,36 -29,65 -65,65 -36,0 -65,-29 -65,-65 0,-36 29,-65 65,-65 z"
               id="path60"
               inkscape:connector-curvature="0"
               style="fill:#5286c4;fill-opacity:0.90196102" /><path
               class="fil3"
               d="m 2670,1324 c 36,0 65,29 65,65 0,36 -29,65 -65,65 -36,0 -65,-29 -65,-65 0,-36 29,-65 65,-65 z"
               id="path62"
               inkscape:connector-curvature="0"
               style="fill:#5286c4;fill-opacity:0.90196102" /><path
               class="fil3"
               d="m 2623,1373 c 36,0 65,29 65,65 0,36 -29,65 -65,65 -36,0 -65,-29 -65,-65 0,-36 29,-65 65,-65 z"
               id="path64"
               inkscape:connector-curvature="0"
               style="fill:#5286c4;fill-opacity:0.90196102" /><path
               class="fil3"
               d="m 2773,1484 c 36,0 65,29 65,65 0,36 -29,65 -65,65 -35,0 -65,-29 -65,-65 0,-36 30,-65 65,-65 z"
               id="path66"
               inkscape:connector-curvature="0"
               style="fill:#5286c4;fill-opacity:0.90196102" /><path
               class="fil3"
               d="m 2876,1333 c 36,0 65,29 65,65 0,36 -29,65 -65,65 -35,0 -65,-29 -65,-65 0,-36 30,-65 65,-65 z"
               id="path68"
               inkscape:connector-curvature="0"
               style="fill:#5286c4;fill-opacity:0.90196102" /><path
               class="fil3"
               d="m 2438,1269 c 36,0 65,30 65,65 0,36 -29,65 -65,65 -35,0 -65,-29 -65,-65 0,-35 30,-65 65,-65 z"
               id="path70"
               inkscape:connector-curvature="0"
               style="fill:#5286c4;fill-opacity:0.90196102" /><path
               class="fil3"
               d="m 2736,1701 c 36,0 65,29 65,65 0,36 -29,65 -65,65 -36,0 -65,-29 -65,-65 0,-36 29,-65 65,-65 z"
               id="path72"
               inkscape:connector-curvature="0"
               style="fill:#5286c4;fill-opacity:0.90196102" /><path
               class="fil3"
               d="m 2413,1694 c 36,0 65,29 65,65 0,36 -29,65 -65,65 -36,0 -65,-29 -65,-65 0,-36 29,-65 65,-65 z"
               id="path74"
               inkscape:connector-curvature="0"
               style="fill:#5286c4;fill-opacity:0.90196102" /><path
               class="fil3"
               d="m 2209,1886 c 36,0 65,29 65,65 0,36 -29,65 -65,65 -36,0 -65,-29 -65,-65 0,-36 29,-65 65,-65 z"
               id="path76"
               inkscape:connector-curvature="0"
               style="fill:#5286c4;fill-opacity:0.90196102" /><path
               class="fil3"
               d="m 2290,1834 c 36,0 65,29 65,65 0,36 -29,65 -65,65 -36,0 -65,-29 -65,-65 0,-36 29,-65 65,-65 z"
               id="path78"
               inkscape:connector-curvature="0"
               style="fill:#5286c4;fill-opacity:0.90196102" /><path
               class="fil3"
               d="m 3021,1752 c 36,0 65,29 65,65 0,36 -29,65 -65,65 -36,0 -65,-29 -65,-65 0,-36 29,-65 65,-65 z"
               id="path80"
               inkscape:connector-curvature="0"
               style="fill:#5286c4;fill-opacity:0.90196102" /><path
               class="fil3"
               d="m 3088,1836 c 36,0 65,29 65,65 0,36 -29,65 -65,65 -36,0 -65,-29 -65,-65 0,-36 29,-65 65,-65 z"
               id="path82"
               inkscape:connector-curvature="0"
               style="fill:#5286c4;fill-opacity:0.90196102" /><path
               class="fil3"
               d="m 2090,1127 c 21,0 38,17 38,38 0,21 -17,39 -38,39 -21,0 -39,-18 -39,-39 0,-21 18,-38 39,-38 z"
               id="path84"
               inkscape:connector-curvature="0"
               style="fill:#5286c4;fill-opacity:0.90196102" /><path
               class="fil3"
               d="m 2268,1800 c 21,0 39,17 39,38 0,21 -18,38 -39,38 -21,0 -38,-17 -38,-38 0,-21 17,-38 38,-38 z"
               id="path86"
               inkscape:connector-curvature="0"
               style="fill:#5286c4;fill-opacity:0.90196102" /><path
               class="fil3"
               d="m 2745,1663 c 22,0 39,17 39,38 0,21 -17,39 -39,39 -21,0 -38,-18 -38,-39 0,-21 17,-38 38,-38 z"
               id="path88"
               inkscape:connector-curvature="0"
               style="fill:#5286c4;fill-opacity:0.90196102" /><path
               class="fil3"
               d="m 3151,1125 c 21,0 38,17 38,38 0,21 -17,39 -38,39 -21,0 -39,-18 -39,-39 0,-21 18,-38 39,-38 z"
               id="path90"
               inkscape:connector-curvature="0"
               style="fill:#5286c4;fill-opacity:0.90196102" /><path
               class="fil3"
               d="m 2738,1396 c 21,0 38,17 38,38 0,21 -17,38 -38,38 -21,0 -39,-17 -39,-38 0,-21 18,-38 39,-38 z"
               id="path92"
               inkscape:connector-curvature="0"
               style="fill:#5286c4;fill-opacity:0.90196102" /></g></g></g><polygon
         class="fil2"
         points="3383,1929 1858,1929 1858,1143 3383,1143 "
         id="polygon99"
         style="fill:none" /><circle
         class="fil2 str1"
         cx="562"
         cy="512"
         r="79"
         id="circle101"
         style="fill:none;stroke:#fefefe;stroke-width:82.66889954" /><path
         class="fil2 str2"
         d="m 1,1143 h 256 c 70,0 126,-57 126,-126 V 761 m 343,0 v 256 c 0,69 56,126 126,126 h 2749"
         id="path103"
         inkscape:connector-curvature="0"
         style="fill:none;stroke:#5489c7;stroke-width:23.61969948" /><line
         class="fil2 str2"
         x1="1"
         y1="1929"
         x2="3601"
         y2="1929"
         id="line105"
         style="fill:none;stroke:#5489c7;stroke-width:23.61969948" /></g></g></svg>