<?xml version="1.0" encoding="UTF-8" standalone="no"?>
<!-- Creator: CorelDRAW X8 -->

<svg
   xmlns:dc="http://purl.org/dc/elements/1.1/"
   xmlns:cc="http://creativecommons.org/ns#"
   xmlns:rdf="http://www.w3.org/1999/02/22-rdf-syntax-ns#"
   xmlns:svg="http://www.w3.org/2000/svg"
   xmlns="http://www.w3.org/2000/svg"
   xmlns:sodipodi="http://sodipodi.sourceforge.net/DTD/sodipodi-0.dtd"
   xmlns:inkscape="http://www.inkscape.org/namespaces/inkscape"
   xml:space="preserve"
   width="3600"
   height="1549.1443"
   version="1.1"
   style="clip-rule:evenodd;fill-rule:evenodd;image-rendering:optimizeQuality;shape-rendering:geometricPrecision;text-rendering:geometricPrecision"
   viewBox="0 0 3600 1548.6197"
   id="svg120"
   sodipodi:docname="02.svg"
   inkscape:version="0.92.1 r15371"><metadata
     id="metadata124"><rdf:RDF><cc:Work
         rdf:about=""><dc:format>image/svg+xml</dc:format><dc:type
           rdf:resource="http://purl.org/dc/dcmitype/StillImage" /><dc:title></dc:title></cc:Work></rdf:RDF></metadata><sodipodi:namedview
     pagecolor="#ffffff"
     bordercolor="#666666"
     borderopacity="1"
     objecttolerance="10"
     gridtolerance="10"
     guidetolerance="10"
     inkscape:pageopacity="0"
     inkscape:pageshadow="2"
     inkscape:window-width="640"
     inkscape:window-height="480"
     id="namedview122"
     showgrid="false"
     fit-margin-top="0"
     fit-margin-left="0"
     fit-margin-right="0"
     fit-margin-bottom="0"
     inkscape:zoom="0.079918727"
     inkscape:cx="1800"
     inkscape:cy="759.80985"
     inkscape:window-x="0"
     inkscape:window-y="0"
     inkscape:window-maximized="0"
     inkscape:current-layer="svg120" /><defs
     id="defs7"><style
       type="text/css"
       id="style2"><![CDATA[
    .str1 {stroke:#5489C7;stroke-width:23.6197}
    .str0 {stroke:#FEFEFE;stroke-width:82.6689}
    .fil3 {fill:none}
    .fil7 {fill:#EBECEC}
    .fil6 {fill:#C5C6C6}
    .fil1 {fill:#898989}
    .fil5 {fill:#C2E1FF}
    .fil4 {fill:#C2E1FF;fill-rule:nonzero}
    .fil0 {fill:#C2E1FF;fill-rule:nonzero;fill-opacity:0.501961}
    .fil2 {fill:#5286C4;fill-opacity:0.901961}
   ]]></style><clipPath
       id="id0"><path
         d="m 1875,1438 h 1525 v 786 H 1875 Z"
         id="path4"
         inkscape:connector-curvature="0" /></clipPath></defs><g
     id="Слой_x0020_1"
     transform="translate(-1,-687.16555)"><metadata
       id="CorelCorpID_0Corel-Layer" /><g
       id="_2208207649632"><path
         class="fil0"
         d="m 603,888 v 635 c 0,73 30,140 78,188 48,49 115,79 189,79 h 524 v 82 H 870 c -97,0 -184,-39 -247,-102 -64,-63 -103,-151 -103,-247 V 888 Z"
         id="path10"
         inkscape:connector-curvature="0"
         style="fill:#c2e1ff;fill-opacity:0.5019609;fill-rule:nonzero" /><path
         class="fil1"
         d="m 1496,1786 h -437 c -16,0 -16,90 0,90 h 437 c 18,0 32,-20 32,-45 v 0 c 0,-25 -14,-45 -32,-45 z"
         id="path12"
         inkscape:connector-curvature="0"
         style="fill:#898989" /><g
         id="g14" /><g
         clip-path="url(#id0)"
         id="g93"><g
           id="_2208207591712"><g
             id="g90"><path
               class="fil2"
               d="m 3111,1444 c 50,0 91,41 91,91 0,51 -41,92 -91,92 -51,0 -92,-41 -92,-92 0,-50 41,-91 92,-91 z"
               id="path16"
               inkscape:connector-curvature="0"
               style="fill:#5286c4;fill-opacity:0.90196102" /><path
               class="fil2"
               d="m 2545,1497 c 50,0 91,41 91,92 0,50 -41,91 -91,91 -51,0 -92,-41 -92,-91 0,-51 41,-92 92,-92 z"
               id="path18"
               inkscape:connector-curvature="0"
               style="fill:#5286c4;fill-opacity:0.90196102" /><path
               class="fil2"
               d="m 2715,2054 c 50,0 91,41 91,92 0,50 -41,91 -91,91 -51,0 -92,-41 -92,-91 0,-51 41,-92 92,-92 z"
               id="path20"
               inkscape:connector-curvature="0"
               style="fill:#5286c4;fill-opacity:0.90196102" /><path
               class="fil2"
               d="m 2409,2085 c 50,0 91,41 91,92 0,51 -41,92 -91,92 -51,0 -92,-41 -92,-92 0,-51 41,-92 92,-92 z"
               id="path22"
               inkscape:connector-curvature="0"
               style="fill:#5286c4;fill-opacity:0.90196102" /><path
               class="fil2"
               d="m 3079,1510 c 51,0 92,41 92,92 0,51 -41,92 -92,92 -50,0 -91,-41 -91,-92 0,-51 41,-92 91,-92 z"
               id="path24"
               inkscape:connector-curvature="0"
               style="fill:#5286c4;fill-opacity:0.90196102" /><path
               class="fil2"
               d="m 2963,1510 c 50,0 91,41 91,92 0,51 -41,92 -91,92 -51,0 -92,-41 -92,-92 0,-51 41,-92 92,-92 z"
               id="path26"
               inkscape:connector-curvature="0"
               style="fill:#5286c4;fill-opacity:0.90196102" /><path
               class="fil2"
               d="m 3157,1871 c 50,0 91,41 91,92 0,51 -41,92 -91,92 -51,0 -92,-41 -92,-92 0,-51 41,-92 92,-92 z"
               id="path28"
               inkscape:connector-curvature="0"
               style="fill:#5286c4;fill-opacity:0.90196102" /><path
               class="fil2"
               d="m 2937,1391 c 51,0 92,41 92,92 0,50 -41,91 -92,91 -50,0 -91,-41 -91,-91 0,-51 41,-92 91,-92 z"
               id="path30"
               inkscape:connector-curvature="0"
               style="fill:#5286c4;fill-opacity:0.90196102" /><path
               class="fil2"
               d="m 2901,2001 c 50,0 91,41 91,91 0,51 -41,92 -91,92 -51,0 -92,-41 -92,-92 0,-50 41,-91 92,-91 z"
               id="path32"
               inkscape:connector-curvature="0"
               style="fill:#5286c4;fill-opacity:0.90196102" /><path
               class="fil2"
               d="m 2964,2114 c 51,0 92,41 92,92 0,51 -41,92 -92,92 -51,0 -92,-41 -92,-92 0,-51 41,-92 92,-92 z"
               id="path34"
               inkscape:connector-curvature="0"
               style="fill:#5286c4;fill-opacity:0.90196102" /><path
               class="fil2"
               d="m 2513,1429 c 50,0 91,41 91,92 0,50 -41,91 -91,91 -51,0 -92,-41 -92,-91 0,-51 41,-92 92,-92 z"
               id="path36"
               inkscape:connector-curvature="0"
               style="fill:#5286c4;fill-opacity:0.90196102" /><path
               class="fil2"
               d="m 2414,1392 c 61,0 110,49 110,109 0,60 -49,109 -110,109 -60,0 -109,-49 -109,-109 0,-60 49,-109 109,-109 z"
               id="path38"
               inkscape:connector-curvature="0"
               style="fill:#5286c4;fill-opacity:0.90196102" /><path
               class="fil2"
               d="m 2571,2038 c 60,0 109,49 109,109 0,61 -49,109 -109,109 -61,0 -110,-48 -110,-109 0,-60 49,-109 110,-109 z"
               id="path40"
               inkscape:connector-curvature="0"
               style="fill:#5286c4;fill-opacity:0.90196102" /><path
               class="fil2"
               d="m 3148,2010 c 60,0 109,49 109,110 0,60 -49,109 -109,109 -61,0 -110,-49 -110,-109 0,-61 49,-110 110,-110 z"
               id="path42"
               inkscape:connector-curvature="0"
               style="fill:#5286c4;fill-opacity:0.90196102" /><path
               class="fil2"
               d="m 2657,1437 c 61,0 109,49 109,109 0,61 -48,110 -109,110 -60,0 -109,-49 -109,-110 0,-60 49,-109 109,-109 z"
               id="path44"
               inkscape:connector-curvature="0"
               style="fill:#5286c4;fill-opacity:0.90196102" /><path
               class="fil2"
               d="m 2650,1351 c 60,0 109,49 109,109 0,61 -49,110 -109,110 -60,0 -109,-49 -109,-110 0,-60 49,-109 109,-109 z"
               id="path46"
               inkscape:connector-curvature="0"
               style="fill:#5286c4;fill-opacity:0.90196102" /><path
               class="fil2"
               d="m 2837,2047 c 61,0 110,49 110,109 0,60 -49,109 -110,109 -60,0 -109,-49 -109,-109 0,-60 49,-109 109,-109 z"
               id="path48"
               inkscape:connector-curvature="0"
               style="fill:#5286c4;fill-opacity:0.90196102" /><path
               class="fil2"
               d="m 2816,1411 c 60,0 109,49 109,109 0,61 -49,109 -109,109 -61,0 -110,-48 -110,-109 0,-60 49,-109 110,-109 z"
               id="path50"
               inkscape:connector-curvature="0"
               style="fill:#5286c4;fill-opacity:0.90196102" /><path
               class="fil2"
               d="m 2301,1392 c 36,0 65,29 65,65 0,36 -29,65 -65,65 -36,0 -65,-29 -65,-65 0,-36 29,-65 65,-65 z"
               id="path52"
               inkscape:connector-curvature="0"
               style="fill:#5286c4;fill-opacity:0.90196102" /><path
               class="fil2"
               d="m 3026,1402 c 36,0 65,29 65,65 0,36 -29,65 -65,65 -36,0 -65,-29 -65,-65 0,-36 29,-65 65,-65 z"
               id="path54"
               inkscape:connector-curvature="0"
               style="fill:#5286c4;fill-opacity:0.90196102" /><path
               class="fil2"
               d="m 2899,1527 c 36,0 65,29 65,65 0,36 -29,65 -65,65 -36,0 -65,-29 -65,-65 0,-36 29,-65 65,-65 z"
               id="path56"
               inkscape:connector-curvature="0"
               style="fill:#5286c4;fill-opacity:0.90196102" /><path
               class="fil2"
               d="m 2467,2012 c 36,0 65,29 65,65 0,36 -29,65 -65,65 -36,0 -65,-29 -65,-65 0,-36 29,-65 65,-65 z"
               id="path58"
               inkscape:connector-curvature="0"
               style="fill:#5286c4;fill-opacity:0.90196102" /><path
               class="fil2"
               d="m 3111,1663 c 36,0 65,29 65,65 0,36 -29,65 -65,65 -36,0 -65,-29 -65,-65 0,-36 29,-65 65,-65 z"
               id="path60"
               inkscape:connector-curvature="0"
               style="fill:#5286c4;fill-opacity:0.90196102" /><path
               class="fil2"
               d="m 2990,1981 c 36,0 65,29 65,65 0,36 -29,65 -65,65 -36,0 -65,-29 -65,-65 0,-36 29,-65 65,-65 z"
               id="path62"
               inkscape:connector-curvature="0"
               style="fill:#5286c4;fill-opacity:0.90196102" /><path
               class="fil2"
               d="m 2846,1568 c 36,0 65,29 65,65 0,36 -29,65 -65,65 -36,0 -65,-29 -65,-65 0,-36 29,-65 65,-65 z"
               id="path64"
               inkscape:connector-curvature="0"
               style="fill:#5286c4;fill-opacity:0.90196102" /><path
               class="fil2"
               d="m 2438,1565 c 36,0 65,29 65,65 0,36 -29,65 -65,65 -35,0 -65,-29 -65,-65 0,-36 30,-65 65,-65 z"
               id="path66"
               inkscape:connector-curvature="0"
               style="fill:#5286c4;fill-opacity:0.90196102" /><path
               class="fil2"
               d="m 2736,1996 c 36,0 65,29 65,65 0,36 -29,65 -65,65 -36,0 -65,-29 -65,-65 0,-36 29,-65 65,-65 z"
               id="path68"
               inkscape:connector-curvature="0"
               style="fill:#5286c4;fill-opacity:0.90196102" /><path
               class="fil2"
               d="m 3036,1892 c 36,0 65,29 65,65 0,36 -29,65 -65,65 -36,0 -65,-29 -65,-65 0,-36 29,-65 65,-65 z"
               id="path70"
               inkscape:connector-curvature="0"
               style="fill:#5286c4;fill-opacity:0.90196102" /><path
               class="fil2"
               d="m 2209,2181 c 36,0 65,29 65,65 0,36 -29,65 -65,65 -36,0 -65,-29 -65,-65 0,-36 29,-65 65,-65 z"
               id="path72"
               inkscape:connector-curvature="0"
               style="fill:#5286c4;fill-opacity:0.90196102" /><path
               class="fil2"
               d="m 2290,2129 c 36,0 65,29 65,65 0,36 -29,65 -65,65 -36,0 -65,-29 -65,-65 0,-36 29,-65 65,-65 z"
               id="path74"
               inkscape:connector-curvature="0"
               style="fill:#5286c4;fill-opacity:0.90196102" /><path
               class="fil2"
               d="m 3021,2047 c 36,0 65,30 65,66 0,35 -29,65 -65,65 -36,0 -65,-30 -65,-65 0,-36 29,-66 65,-66 z"
               id="path76"
               inkscape:connector-curvature="0"
               style="fill:#5286c4;fill-opacity:0.90196102" /><path
               class="fil2"
               d="m 3088,2131 c 36,0 65,29 65,65 0,36 -29,65 -65,65 -36,0 -65,-29 -65,-65 0,-36 29,-65 65,-65 z"
               id="path78"
               inkscape:connector-curvature="0"
               style="fill:#5286c4;fill-opacity:0.90196102" /><path
               class="fil2"
               d="m 3238,2170 c 21,0 38,18 38,39 0,21 -17,38 -38,38 -22,0 -39,-17 -39,-38 0,-21 17,-39 39,-39 z"
               id="path80"
               inkscape:connector-curvature="0"
               style="fill:#5286c4;fill-opacity:0.90196102" /><path
               class="fil2"
               d="m 2268,2095 c 21,0 39,17 39,38 0,22 -18,39 -39,39 -21,0 -38,-17 -38,-39 0,-21 17,-38 38,-38 z"
               id="path82"
               inkscape:connector-curvature="0"
               style="fill:#5286c4;fill-opacity:0.90196102" /><path
               class="fil2"
               d="m 3072,2003 c 21,0 38,17 38,38 0,21 -17,38 -38,38 -21,0 -38,-17 -38,-38 0,-21 17,-38 38,-38 z"
               id="path84"
               inkscape:connector-curvature="0"
               style="fill:#5286c4;fill-opacity:0.90196102" /><path
               class="fil2"
               d="m 3166,1417 c 21,0 38,17 38,38 0,22 -17,39 -38,39 -21,0 -38,-17 -38,-39 0,-21 17,-38 38,-38 z"
               id="path86"
               inkscape:connector-curvature="0"
               style="fill:#5286c4;fill-opacity:0.90196102" /><path
               class="fil2"
               d="m 3052,1658 c 21,0 38,17 38,38 0,21 -17,39 -38,39 -21,0 -38,-18 -38,-39 0,-21 17,-38 38,-38 z"
               id="path88"
               inkscape:connector-curvature="0"
               style="fill:#5286c4;fill-opacity:0.90196102" /></g></g></g><polygon
         class="fil3"
         points="3400,2224 1875,2224 1875,1438 3400,1438 "
         id="polygon95"
         style="fill:none" /><circle
         class="fil3 str0"
         cx="562"
         cy="807"
         r="79"
         id="circle97"
         style="fill:none;stroke:#fefefe;stroke-width:82.66889954" /><g
         id="_2208207585504"><path
           class="fil4"
           d="m 2616,1814 c 4,4 173,21 105,39 -32,9 -102,10 -56,27 32,11 188,17 70,27 -15,1 -35,2 -59,4 -202,11 56,68 -148,42 -1016,-130 -946,-118 35,-244 124,-16 -58,32 125,27 112,-2 197,6 10,47 -49,10 -94,21 -82,31 z"
           id="path99"
           inkscape:connector-curvature="0"
           style="fill:#c2e1ff;fill-rule:nonzero" /><path
           class="fil5"
           d="m 1414,1557 c -1,-3 -47,-44 -20,-36 12,3 33,18 24,2 -6,-11 -51,-45 -12,-24 5,3 11,6 19,11 64,38 3,-36 57,15 312,299 181,205 -84,80 -43,-20 27,1 -30,-35 -35,-23 -58,-43 11,-19 18,6 35,12 35,6 z"
           id="path101"
           inkscape:connector-curvature="0"
           style="fill:#c2e1ff" /><path
           class="fil5"
           d="m 1414,2110 c -1,2 -47,43 -20,35 12,-3 33,-17 24,-2 -6,11 -51,45 -12,24 5,-2 11,-6 19,-11 64,-37 3,37 57,-15 312,-299 181,-205 -84,-80 -43,20 27,-1 -30,36 -35,22 -58,42 11,18 18,-6 35,-11 35,-5 z"
           id="path103"
           inkscape:connector-curvature="0"
           style="fill:#c2e1ff" /><path
           class="fil5"
           d="m 1323,1658 c -1,0 -52,-9 -33,-1 9,5 30,10 15,10 -10,0 -56,-11 -22,0 5,1 10,3 17,5 59,18 -20,9 41,20 307,55 276,48 3,-50 -35,-13 15,10 -38,-5 -33,-9 -58,-14 -5,8 13,6 26,12 22,13 z"
           id="path105"
           inkscape:connector-curvature="0"
           style="fill:#c2e1ff" /><path
           class="fil5"
           d="m 1323,2008 c -1,0 -52,10 -33,1 9,-5 30,-10 15,-10 -10,0 -56,11 -22,0 5,-1 10,-3 17,-5 59,-18 -20,-9 41,-20 307,-54 276,-48 3,51 -35,12 15,-11 -38,4 -33,9 -58,14 -5,-8 13,-6 26,-12 22,-13 z"
           id="path107"
           inkscape:connector-curvature="0"
           style="fill:#c2e1ff" /></g><path
         class="fil6"
         d="m 1437,1779 c -24,5 -24,99 0,104 215,48 215,-152 0,-104 z"
         id="path110"
         inkscape:connector-curvature="0"
         style="fill:#c5c6c6" /><path
         class="fil3 str1"
         d="m 1,1438 h 256 c 70,0 126,-57 126,-126 v -256 m 343,0 v 256 c 0,69 56,126 126,126 h 2749"
         id="path112"
         inkscape:connector-curvature="0"
         style="fill:none;stroke:#5489c7;stroke-width:23.61969948" /><line
         class="fil3 str1"
         x1="1"
         y1="2224"
         x2="3601"
         y2="2224"
         id="line114"
         style="fill:none;stroke:#5489c7;stroke-width:23.61969948" /><path
         class="fil7"
         d="m 1512,1831 c -1,35 8,70 24,74 24,6 47,8 67,8 101,1 153,-56 153,-82 0,0 0,0 0,0 0,-1 0,-1 0,-1 0,-26 -52,-83 -153,-82 -20,0 -43,3 -67,8 -16,4 -25,39 -24,75 z"
         id="path116"
         inkscape:connector-curvature="0"
         style="fill:#ebecec" /></g></g></svg>