<?xml version="1.0" encoding="UTF-8" standalone="no"?>
<!-- Creator: CorelDRAW X8 -->

<svg
   xmlns:dc="http://purl.org/dc/elements/1.1/"
   xmlns:cc="http://creativecommons.org/ns#"
   xmlns:rdf="http://www.w3.org/1999/02/22-rdf-syntax-ns#"
   xmlns:svg="http://www.w3.org/2000/svg"
   xmlns="http://www.w3.org/2000/svg"
   xmlns:sodipodi="http://sodipodi.sourceforge.net/DTD/sodipodi-0.dtd"
   xmlns:inkscape="http://www.inkscape.org/namespaces/inkscape"
   xml:space="preserve"
   width="3600"
   height="1549.1443"
   version="1.1"
   style="clip-rule:evenodd;fill-rule:evenodd;image-rendering:optimizeQuality;shape-rendering:geometricPrecision;text-rendering:geometricPrecision"
   viewBox="0 0 3600 1548.6197"
   id="svg165"
   sodipodi:docname="03.svg"
   inkscape:version="0.92.1 r15371"><metadata
     id="metadata169"><rdf:RDF><cc:Work
         rdf:about=""><dc:format>image/svg+xml</dc:format><dc:type
           rdf:resource="http://purl.org/dc/dcmitype/StillImage" /><dc:title></dc:title></cc:Work></rdf:RDF></metadata><sodipodi:namedview
     pagecolor="#ffffff"
     bordercolor="#666666"
     borderopacity="1"
     objecttolerance="10"
     gridtolerance="10"
     guidetolerance="10"
     inkscape:pageopacity="0"
     inkscape:pageshadow="2"
     inkscape:window-width="640"
     inkscape:window-height="480"
     id="namedview167"
     showgrid="false"
     fit-margin-top="0"
     fit-margin-left="0"
     fit-margin-right="0"
     fit-margin-bottom="0"
     inkscape:zoom="0.079918727"
     inkscape:cx="1800"
     inkscape:cy="759.80985"
     inkscape:window-x="0"
     inkscape:window-y="0"
     inkscape:window-maximized="0"
     inkscape:current-layer="svg165" /><defs
     id="defs15"><style
       type="text/css"
       id="style2"><![CDATA[
    .str1 {stroke:#5489C7;stroke-width:23.6197}
    .str0 {stroke:#FEFEFE;stroke-width:82.6689}
    .fil2 {fill:none}
    .fil3 {fill:#FEFEFE}
    .fil7 {fill:#EBECEC}
    .fil5 {fill:#C5C6C6}
    .fil4 {fill:#9D9E9E}
    .fil6 {fill:#727271}
    .fil0 {fill:#C2E1FF;fill-rule:nonzero;fill-opacity:0.501961}
    .fil1 {fill:#5286C4;fill-opacity:0.901961}
   ]]></style><clipPath
       id="id0"><path
         d="m 1875,1438 h 1525 v 786 H 1875 Z"
         id="path4"
         inkscape:connector-curvature="0" /></clipPath><mask
       id="id1"><linearGradient
         id="id2"
         gradientUnits="userSpaceOnUse"
         x1="3052.6699"
         y1="1817.21"
         x2="1526.99"
         y2="1817.21"><stop
           offset="0"
           style="stop-opacity:0; stop-color:white"
           id="stop7" /><stop
           offset="1"
           style="stop-opacity:0.764706; stop-color:white"
           id="stop9" /></linearGradient><rect
         style="fill:url(#id2)"
         x="1644"
         y="1510"
         width="1857"
         height="642"
         id="rect12" /></mask></defs><g
     id="Слой_x0020_1"
     transform="translate(-1,-687.16555)"><metadata
       id="CorelCorpID_0Corel-Layer" /><g
       id="_2208208397616"><path
         class="fil0"
         d="m 603,888 v 635 c 0,73 30,140 78,188 48,49 115,79 189,79 h 524 v 82 H 870 c -97,0 -184,-39 -247,-102 -64,-63 -103,-151 -103,-247 V 888 Z"
         id="path18"
         inkscape:connector-curvature="0"
         style="fill:#c2e1ff;fill-opacity:0.5019609;fill-rule:nonzero" /><g
         id="g20" /><g
         clip-path="url(#id0)"
         id="g99"><g
           id="_2208398941344"><g
             id="g96"><path
               class="fil1"
               d="m 3039,1441 c 50,0 91,41 91,92 0,51 -41,92 -91,92 -51,0 -92,-41 -92,-92 0,-51 41,-92 92,-92 z"
               id="path22"
               inkscape:connector-curvature="0"
               style="fill:#5286c4;fill-opacity:0.90196102" /><path
               class="fil1"
               d="m 2473,1495 c 50,0 91,41 91,91 0,51 -41,92 -91,92 -51,0 -92,-41 -92,-92 0,-50 41,-91 92,-91 z"
               id="path24"
               inkscape:connector-curvature="0"
               style="fill:#5286c4;fill-opacity:0.90196102" /><path
               class="fil1"
               d="m 2483,2069 c 50,0 91,41 91,92 0,51 -41,92 -91,92 -51,0 -92,-41 -92,-92 0,-51 41,-92 92,-92 z"
               id="path26"
               inkscape:connector-curvature="0"
               style="fill:#5286c4;fill-opacity:0.90196102" /><path
               class="fil1"
               d="m 2464,2028 c 51,0 92,41 92,92 0,50 -41,91 -92,91 -51,0 -92,-41 -92,-91 0,-51 41,-92 92,-92 z"
               id="path28"
               inkscape:connector-curvature="0"
               style="fill:#5286c4;fill-opacity:0.90196102" /><path
               class="fil1"
               d="m 3007,1508 c 51,0 92,41 92,92 0,50 -41,91 -92,91 -50,0 -91,-41 -91,-91 0,-51 41,-92 91,-92 z"
               id="path30"
               inkscape:connector-curvature="0"
               style="fill:#5286c4;fill-opacity:0.90196102" /><path
               class="fil1"
               d="m 2707,1472 c 51,0 92,41 92,92 0,50 -41,91 -92,91 -51,0 -92,-41 -92,-91 0,-51 41,-92 92,-92 z"
               id="path32"
               inkscape:connector-curvature="0"
               style="fill:#5286c4;fill-opacity:0.90196102" /><path
               class="fil1"
               d="m 3082,2024 c 51,0 92,41 92,92 0,50 -41,91 -92,91 -50,0 -92,-41 -92,-91 0,-51 42,-92 92,-92 z"
               id="path34"
               inkscape:connector-curvature="0"
               style="fill:#5286c4;fill-opacity:0.90196102" /><path
               class="fil1"
               d="m 2865,1389 c 51,0 92,41 92,91 0,51 -41,92 -92,92 -50,0 -91,-41 -91,-92 0,-50 41,-91 91,-91 z"
               id="path36"
               inkscape:connector-curvature="0"
               style="fill:#5286c4;fill-opacity:0.90196102" /><path
               class="fil1"
               d="m 2829,1998 c 50,0 91,41 91,92 0,51 -41,92 -91,92 -51,0 -92,-41 -92,-92 0,-51 41,-92 92,-92 z"
               id="path38"
               inkscape:connector-curvature="0"
               style="fill:#5286c4;fill-opacity:0.90196102" /><path
               class="fil1"
               d="m 2750,2117 c 50,0 91,41 91,92 0,50 -41,91 -91,91 -51,0 -92,-41 -92,-91 0,-51 41,-92 92,-92 z"
               id="path40"
               inkscape:connector-curvature="0"
               style="fill:#5286c4;fill-opacity:0.90196102" /><path
               class="fil1"
               d="m 2441,1427 c 50,0 91,41 91,92 0,50 -41,91 -91,91 -51,0 -92,-41 -92,-91 0,-51 41,-92 92,-92 z"
               id="path42"
               inkscape:connector-curvature="0"
               style="fill:#5286c4;fill-opacity:0.90196102" /><path
               class="fil1"
               d="m 2342,1390 c 61,0 110,48 110,109 0,60 -49,109 -110,109 -60,0 -109,-49 -109,-109 0,-61 49,-109 109,-109 z"
               id="path44"
               inkscape:connector-curvature="0"
               style="fill:#5286c4;fill-opacity:0.90196102" /><path
               class="fil1"
               d="m 2376,1963 c 60,0 109,49 109,110 0,60 -49,109 -109,109 -61,0 -110,-49 -110,-109 0,-61 49,-110 110,-110 z"
               id="path46"
               inkscape:connector-curvature="0"
               style="fill:#5286c4;fill-opacity:0.90196102" /><path
               class="fil1"
               d="m 2923,2051 c 61,0 110,49 110,109 0,61 -49,110 -110,110 -60,0 -109,-49 -109,-110 0,-60 49,-109 109,-109 z"
               id="path48"
               inkscape:connector-curvature="0"
               style="fill:#5286c4;fill-opacity:0.90196102" /><path
               class="fil1"
               d="m 2585,1435 c 61,0 109,49 109,109 0,60 -48,109 -109,109 -60,0 -109,-49 -109,-109 0,-60 49,-109 109,-109 z"
               id="path50"
               inkscape:connector-curvature="0"
               style="fill:#5286c4;fill-opacity:0.90196102" /><path
               class="fil1"
               d="m 2578,1349 c 60,0 109,49 109,109 0,60 -49,109 -109,109 -60,0 -109,-49 -109,-109 0,-60 49,-109 109,-109 z"
               id="path52"
               inkscape:connector-curvature="0"
               style="fill:#5286c4;fill-opacity:0.90196102" /><path
               class="fil1"
               d="m 2615,2095 c 61,0 110,48 110,109 0,60 -49,109 -110,109 -60,0 -109,-49 -109,-109 0,-61 49,-109 109,-109 z"
               id="path54"
               inkscape:connector-curvature="0"
               style="fill:#5286c4;fill-opacity:0.90196102" /><path
               class="fil1"
               d="m 2692,1369 c 60,0 109,49 109,109 0,61 -49,110 -109,110 -60,0 -109,-49 -109,-110 0,-60 49,-109 109,-109 z"
               id="path56"
               inkscape:connector-curvature="0"
               style="fill:#5286c4;fill-opacity:0.90196102" /><path
               class="fil1"
               d="m 2229,1390 c 36,0 65,29 65,65 0,35 -29,65 -65,65 -36,0 -65,-30 -65,-65 0,-36 29,-65 65,-65 z"
               id="path58"
               inkscape:connector-curvature="0"
               style="fill:#5286c4;fill-opacity:0.90196102" /><path
               class="fil1"
               d="m 2954,1400 c 36,0 65,29 65,65 0,36 -29,65 -65,65 -36,0 -65,-29 -65,-65 0,-36 29,-65 65,-65 z"
               id="path60"
               inkscape:connector-curvature="0"
               style="fill:#5286c4;fill-opacity:0.90196102" /><path
               class="fil1"
               d="m 2621,1614 c 36,0 65,29 65,65 0,36 -29,65 -65,65 -36,0 -65,-29 -65,-65 0,-36 29,-65 65,-65 z"
               id="path62"
               inkscape:connector-curvature="0"
               style="fill:#5286c4;fill-opacity:0.90196102" /><path
               class="fil1"
               d="m 2395,2010 c 36,0 65,29 65,65 0,36 -29,65 -65,65 -36,0 -65,-29 -65,-65 0,-36 29,-65 65,-65 z"
               id="path64"
               inkscape:connector-curvature="0"
               style="fill:#5286c4;fill-opacity:0.90196102" /><path
               class="fil1"
               d="m 3095,1507 c 36,0 65,30 65,65 0,36 -29,65 -65,65 -36,0 -65,-29 -65,-65 0,-35 29,-65 65,-65 z"
               id="path66"
               inkscape:connector-curvature="0"
               style="fill:#5286c4;fill-opacity:0.90196102" /><path
               class="fil1"
               d="m 2983,2006 c 36,0 65,30 65,65 0,36 -29,66 -65,66 -36,0 -65,-30 -65,-66 0,-35 29,-65 65,-65 z"
               id="path68"
               inkscape:connector-curvature="0"
               style="fill:#5286c4;fill-opacity:0.90196102" /><path
               class="fil1"
               d="m 2675,1509 c 35,0 65,29 65,65 0,36 -30,65 -65,65 -36,0 -66,-29 -66,-65 0,-36 30,-65 66,-65 z"
               id="path70"
               inkscape:connector-curvature="0"
               style="fill:#5286c4;fill-opacity:0.90196102" /><path
               class="fil1"
               d="m 2366,1562 c 36,0 66,30 66,65 0,36 -30,65 -66,65 -35,0 -65,-29 -65,-65 0,-35 30,-65 65,-65 z"
               id="path72"
               inkscape:connector-curvature="0"
               style="fill:#5286c4;fill-opacity:0.90196102" /><path
               class="fil1"
               d="m 2664,1994 c 36,0 65,29 65,65 0,36 -29,65 -65,65 -36,0 -65,-29 -65,-65 0,-36 29,-65 65,-65 z"
               id="path74"
               inkscape:connector-curvature="0"
               style="fill:#5286c4;fill-opacity:0.90196102" /><path
               class="fil1"
               d="m 3058,1970 c 36,0 65,29 65,65 0,36 -29,65 -65,65 -36,0 -65,-29 -65,-65 0,-36 29,-65 65,-65 z"
               id="path76"
               inkscape:connector-curvature="0"
               style="fill:#5286c4;fill-opacity:0.90196102" /><path
               class="fil1"
               d="m 2137,2179 c 36,0 65,29 65,65 0,36 -29,65 -65,65 -36,0 -65,-29 -65,-65 0,-36 29,-65 65,-65 z"
               id="path78"
               inkscape:connector-curvature="0"
               style="fill:#5286c4;fill-opacity:0.90196102" /><path
               class="fil1"
               d="m 2218,2127 c 36,0 65,29 65,65 0,36 -29,65 -65,65 -36,0 -65,-29 -65,-65 0,-36 29,-65 65,-65 z"
               id="path80"
               inkscape:connector-curvature="0"
               style="fill:#5286c4;fill-opacity:0.90196102" /><path
               class="fil1"
               d="m 2841,2144 c 36,0 65,29 65,65 0,36 -29,65 -65,65 -36,0 -65,-29 -65,-65 0,-36 29,-65 65,-65 z"
               id="path82"
               inkscape:connector-curvature="0"
               style="fill:#5286c4;fill-opacity:0.90196102" /><path
               class="fil1"
               d="m 2968,2171 c 36,0 65,29 65,65 0,36 -29,65 -65,65 -36,0 -65,-29 -65,-65 0,-36 29,-65 65,-65 z"
               id="path84"
               inkscape:connector-curvature="0"
               style="fill:#5286c4;fill-opacity:0.90196102" /><path
               class="fil1"
               d="m 3166,2168 c 21,0 38,17 38,39 0,21 -17,38 -38,38 -22,0 -39,-17 -39,-38 0,-22 17,-39 39,-39 z"
               id="path86"
               inkscape:connector-curvature="0"
               style="fill:#5286c4;fill-opacity:0.90196102" /><path
               class="fil1"
               d="m 2196,2093 c 21,0 39,17 39,38 0,21 -18,38 -39,38 -21,0 -38,-17 -38,-38 0,-21 17,-38 38,-38 z"
               id="path88"
               inkscape:connector-curvature="0"
               style="fill:#5286c4;fill-opacity:0.90196102" /><path
               class="fil1"
               d="m 3000,2000 c 21,0 38,17 38,39 0,21 -17,38 -38,38 -21,0 -38,-17 -38,-38 0,-22 17,-39 38,-39 z"
               id="path90"
               inkscape:connector-curvature="0"
               style="fill:#5286c4;fill-opacity:0.90196102" /><path
               class="fil1"
               d="m 3094,1415 c 21,0 38,17 38,38 0,21 -17,38 -38,38 -21,0 -38,-17 -38,-38 0,-21 17,-38 38,-38 z"
               id="path92"
               inkscape:connector-curvature="0"
               style="fill:#5286c4;fill-opacity:0.90196102" /><path
               class="fil1"
               d="m 2980,1655 c 21,0 38,18 38,39 0,21 -17,38 -38,38 -21,0 -38,-17 -38,-38 0,-21 17,-39 38,-39 z"
               id="path94"
               inkscape:connector-curvature="0"
               style="fill:#5286c4;fill-opacity:0.90196102" /></g></g></g><polygon
         class="fil2"
         points="3400,2224 1875,2224 1875,1438 3400,1438 "
         id="polygon101"
         style="fill:none" /><circle
         class="fil2 str0"
         cx="562"
         cy="807"
         r="79"
         id="circle103"
         style="fill:none;stroke:#fefefe;stroke-width:82.66889954" /><circle
         class="fil3"
         cx="1482"
         cy="1831"
         r="92"
         id="circle105"
         style="fill:#fefefe" /><path
         class="fil3"
         style="fill:#fefefe"
         d="m 3113,1513 c -1959,217 -1959,419 0,636 518,57 518,-694 0,-636 z"
         mask="url(#id1)"
         id="path107"
         inkscape:connector-curvature="0" /><path
         class="fil2 str1"
         d="m 1,1438 h 256 c 70,0 126,-57 126,-126 v -256 m 343,0 v 256 c 0,69 56,126 126,126 h 2749"
         id="path109"
         inkscape:connector-curvature="0"
         style="fill:none;stroke:#5489c7;stroke-width:23.61969948" /><line
         class="fil2 str1"
         x1="1"
         y1="2224"
         x2="3601"
         y2="2224"
         id="line111"
         style="fill:none;stroke:#5489c7;stroke-width:23.61969948" /><path
         class="fil4"
         d="m 921,1783 h -17 c -1,0 -1,96 0,96 h 17 c 0,0 1,-21 1,-48 v 0 c 0,-27 -1,-48 -1,-48 z"
         id="path113"
         inkscape:connector-curvature="0"
         style="fill:#9d9e9e" /><path
         class="fil4"
         d="m 950,1783 h -17 c 0,0 0,96 0,96 h 17 c 1,0 1,-21 1,-48 v 0 c 0,-27 0,-48 -1,-48 z"
         id="path115"
         inkscape:connector-curvature="0"
         style="fill:#9d9e9e" /><path
         class="fil4"
         d="m 979,1783 h -17 c 0,0 0,96 0,96 h 17 c 1,0 2,-21 2,-48 v 0 c 0,-27 -1,-48 -2,-48 z"
         id="path117"
         inkscape:connector-curvature="0"
         style="fill:#9d9e9e" /><path
         class="fil4"
         d="m 1009,1783 h -17 c -1,0 -1,96 0,96 h 17 c 0,0 1,-21 1,-48 v 0 c 0,-27 -1,-48 -1,-48 z"
         id="path119"
         inkscape:connector-curvature="0"
         style="fill:#9d9e9e" /><path
         class="fil4"
         d="m 1038,1783 h -17 c -1,0 -1,96 0,96 h 17 c 1,0 1,-21 1,-48 v 0 c 0,-27 0,-48 -1,-48 z"
         id="path121"
         inkscape:connector-curvature="0"
         style="fill:#9d9e9e" /><path
         class="fil4"
         d="m 1067,1783 h -17 c 0,0 0,96 0,96 h 17 c 1,0 1,-21 1,-48 v 0 c 0,-27 0,-48 -1,-48 z"
         id="path123"
         inkscape:connector-curvature="0"
         style="fill:#9d9e9e" /><path
         class="fil4"
         d="m 1096,1783 h -16 c -1,0 -1,96 0,96 h 16 c 1,0 2,-21 2,-48 v 0 c 0,-27 -1,-48 -2,-48 z"
         id="path125"
         inkscape:connector-curvature="0"
         style="fill:#9d9e9e" /><path
         class="fil4"
         d="m 1126,1783 h -17 c -1,0 -1,96 0,96 h 17 c 0,0 1,-21 1,-48 v 0 c 0,-27 -1,-48 -1,-48 z"
         id="path127"
         inkscape:connector-curvature="0"
         style="fill:#9d9e9e" /><path
         class="fil4"
         d="m 1155,1783 h -17 c 0,0 0,96 0,96 h 17 c 1,0 1,-21 1,-48 v 0 c 0,-27 0,-48 -1,-48 z"
         id="path129"
         inkscape:connector-curvature="0"
         style="fill:#9d9e9e" /><path
         class="fil4"
         d="m 1184,1783 h -17 c 0,0 0,96 0,96 h 17 c 1,0 2,-21 2,-48 v 0 c 0,-27 -1,-48 -2,-48 z"
         id="path131"
         inkscape:connector-curvature="0"
         style="fill:#9d9e9e" /><path
         class="fil4"
         d="m 1214,1783 h -17 c -1,0 -1,96 0,96 h 17 c 0,0 1,-21 1,-48 v 0 c 0,-27 -1,-48 -1,-48 z"
         id="path133"
         inkscape:connector-curvature="0"
         style="fill:#9d9e9e" /><path
         class="fil4"
         d="m 1243,1783 h -17 c -1,0 -1,96 0,96 h 17 c 1,0 1,-21 1,-48 v 0 c 0,-27 0,-48 -1,-48 z"
         id="path135"
         inkscape:connector-curvature="0"
         style="fill:#9d9e9e" /><path
         class="fil5"
         d="m 935,1783 h -17 c 0,0 0,96 0,96 h 17 c 1,0 2,-21 2,-48 v 0 c 0,-27 -1,-48 -2,-48 z"
         id="path137"
         inkscape:connector-curvature="0"
         style="fill:#c5c6c6" /><path
         class="fil5"
         d="m 965,1783 h -17 c -1,0 -1,96 0,96 h 17 c 0,0 1,-21 1,-48 v 0 c 0,-27 -1,-48 -1,-48 z"
         id="path139"
         inkscape:connector-curvature="0"
         style="fill:#c5c6c6" /><path
         class="fil5"
         d="m 994,1783 h -17 c -1,0 -1,96 0,96 h 17 c 1,0 1,-21 1,-48 v 0 c 0,-27 0,-48 -1,-48 z"
         id="path141"
         inkscape:connector-curvature="0"
         style="fill:#c5c6c6" /><path
         class="fil5"
         d="m 1023,1783 h -17 c 0,0 0,96 0,96 h 17 c 1,0 1,-21 1,-48 v 0 c 0,-27 0,-48 -1,-48 z"
         id="path143"
         inkscape:connector-curvature="0"
         style="fill:#c5c6c6" /><path
         class="fil5"
         d="m 1052,1783 h -16 c -1,0 -1,96 0,96 h 16 c 1,0 2,-21 2,-48 v 0 c 0,-27 -1,-48 -2,-48 z"
         id="path145"
         inkscape:connector-curvature="0"
         style="fill:#c5c6c6" /><path
         class="fil5"
         d="m 1082,1783 h -17 c -1,0 -1,96 0,96 h 17 c 0,0 1,-21 1,-48 v 0 c 0,-27 -1,-48 -1,-48 z"
         id="path147"
         inkscape:connector-curvature="0"
         style="fill:#c5c6c6" /><path
         class="fil5"
         d="m 1111,1783 h -17 c 0,0 0,96 0,96 h 17 c 1,0 1,-21 1,-48 v 0 c 0,-27 0,-48 -1,-48 z"
         id="path149"
         inkscape:connector-curvature="0"
         style="fill:#c5c6c6" /><path
         class="fil5"
         d="m 1140,1783 h -17 c 0,0 0,96 0,96 h 17 c 1,0 2,-21 2,-48 v 0 c 0,-27 -1,-48 -2,-48 z"
         id="path151"
         inkscape:connector-curvature="0"
         style="fill:#c5c6c6" /><path
         class="fil5"
         d="m 1170,1783 h -17 c -1,0 -1,96 0,96 h 17 c 0,0 1,-21 1,-48 v 0 c 0,-27 -1,-48 -1,-48 z"
         id="path153"
         inkscape:connector-curvature="0"
         style="fill:#c5c6c6" /><path
         class="fil5"
         d="m 1199,1783 h -17 c -1,0 -1,96 0,96 h 17 c 1,0 1,-21 1,-48 v 0 c 0,-27 0,-48 -1,-48 z"
         id="path155"
         inkscape:connector-curvature="0"
         style="fill:#c5c6c6" /><path
         class="fil5"
         d="m 1228,1783 h -17 c 0,0 0,96 0,96 h 17 c 1,0 1,-21 1,-48 v 0 c 0,-27 0,-48 -1,-48 z"
         id="path157"
         inkscape:connector-curvature="0"
         style="fill:#c5c6c6" /><path
         class="fil6"
         d="m 1257,1770 h -16 c -1,0 -1,122 0,122 h 16 c 1,0 2,-27 2,-61 v 0 c 0,-34 -1,-61 -2,-61 z"
         id="path159"
         inkscape:connector-curvature="0"
         style="fill:#727271" /><path
         class="fil7"
         d="m 1498,1709 c -64,3 -242,-12 -242,63 0,39 0,79 0,118 0,75 178,60 242,63 70,4 70,-248 0,-244 z"
         id="path161"
         inkscape:connector-curvature="0"
         style="fill:#ebecec" /></g></g></svg>