<?xml version="1.0" encoding="UTF-8" standalone="no"?>
<!-- Creator: CorelDRAW X8 -->

<svg
   xmlns:dc="http://purl.org/dc/elements/1.1/"
   xmlns:cc="http://creativecommons.org/ns#"
   xmlns:rdf="http://www.w3.org/1999/02/22-rdf-syntax-ns#"
   xmlns:svg="http://www.w3.org/2000/svg"
   xmlns="http://www.w3.org/2000/svg"
   xmlns:sodipodi="http://sodipodi.sourceforge.net/DTD/sodipodi-0.dtd"
   xmlns:inkscape="http://www.inkscape.org/namespaces/inkscape"
   xml:space="preserve"
   width="3600"
   height="1549.1443"
   version="1.1"
   style="clip-rule:evenodd;fill-rule:evenodd;image-rendering:optimizeQuality;shape-rendering:geometricPrecision;text-rendering:geometricPrecision"
   viewBox="0 0 3600 1548.6197"
   id="svg311"
   sodipodi:docname="04.svg"
   inkscape:version="0.92.1 r15371"><metadata
     id="metadata315"><rdf:RDF><cc:Work
         rdf:about=""><dc:format>image/svg+xml</dc:format><dc:type
           rdf:resource="http://purl.org/dc/dcmitype/StillImage" /><dc:title></dc:title></cc:Work></rdf:RDF></metadata><sodipodi:namedview
     pagecolor="#ffffff"
     bordercolor="#666666"
     borderopacity="1"
     objecttolerance="10"
     gridtolerance="10"
     guidetolerance="10"
     inkscape:pageopacity="0"
     inkscape:pageshadow="2"
     inkscape:window-width="640"
     inkscape:window-height="480"
     id="namedview313"
     showgrid="false"
     fit-margin-top="0"
     fit-margin-left="0"
     fit-margin-right="0"
     fit-margin-bottom="0"
     inkscape:zoom="0.079918727"
     inkscape:cx="1800"
     inkscape:cy="759.80985"
     inkscape:window-x="0"
     inkscape:window-y="0"
     inkscape:window-maximized="0"
     inkscape:current-layer="svg311" /><defs
     id="defs143"><style
       type="text/css"
       id="style2"><![CDATA[
    .str1 {stroke:#5489C7;stroke-width:23.6197}
    .str0 {stroke:#FEFEFE;stroke-width:82.6689}
    .fil2 {fill:none}
    .fil3 {fill:#FEFEFE}
    .fil5 {fill:#898989}
    .fil4 {fill:#FEFEFE;fill-opacity:0.501961}
    .fil0 {fill:#C2E1FF;fill-rule:nonzero;fill-opacity:0.501961}
    .fil1 {fill:#5286C4;fill-opacity:0.901961}
   ]]></style><clipPath
       id="id0"><path
         d="m 1875,1438 h 1525 v 786 H 1875 Z"
         id="path4"
         inkscape:connector-curvature="0" /></clipPath><mask
       id="id1"><linearGradient
         id="id2"
         gradientUnits="userSpaceOnUse"
         x1="1597.34"
         y1="1793.17"
         x2="1554.35"
         y2="1728.14"><stop
           offset="0"
           style="stop-opacity:1; stop-color:white"
           id="stop7" /><stop
           offset="1"
           style="stop-opacity:0; stop-color:white"
           id="stop9" /></linearGradient><rect
         style="fill:url(#id2)"
         x="1558"
         y="1753"
         width="79.363297"
         height="79.363297"
         id="rect12" /></mask><mask
       id="id3"><linearGradient
         id="id4"
         gradientUnits="userSpaceOnUse"
         x1="2383.9099"
         y1="1803.96"
         x2="2340.9199"
         y2="1738.9301"><stop
           offset="0"
           style="stop-opacity:1; stop-color:white"
           id="stop15" /><stop
           offset="1"
           style="stop-opacity:0; stop-color:white"
           id="stop17" /></linearGradient><rect
         style="fill:url(#id4)"
         x="2344"
         y="1764"
         width="79.363297"
         height="79.363297"
         id="rect20" /></mask><mask
       id="id5"><linearGradient
         id="id6"
         gradientUnits="userSpaceOnUse"
         x1="2830.6499"
         y1="1874.1"
         x2="2787.6599"
         y2="1809.0601"><stop
           offset="0"
           style="stop-opacity:1; stop-color:white"
           id="stop23" /><stop
           offset="1"
           style="stop-opacity:0; stop-color:white"
           id="stop25" /></linearGradient><rect
         style="fill:url(#id6)"
         x="2791"
         y="1834"
         width="79.363297"
         height="79.363297"
         id="rect28" /></mask><mask
       id="id7"><linearGradient
         id="id8"
         gradientUnits="userSpaceOnUse"
         x1="3240.9199"
         y1="1676.62"
         x2="3197.9299"
         y2="1611.58"><stop
           offset="0"
           style="stop-opacity:1; stop-color:white"
           id="stop31" /><stop
           offset="1"
           style="stop-opacity:0; stop-color:white"
           id="stop33" /></linearGradient><rect
         style="fill:url(#id8)"
         x="3201"
         y="1637"
         width="79.363297"
         height="79.363297"
         id="rect36" /></mask><mask
       id="id9"><linearGradient
         id="id10"
         gradientUnits="userSpaceOnUse"
         x1="1862.77"
         y1="2019.64"
         x2="1819.78"
         y2="1954.61"><stop
           offset="0"
           style="stop-opacity:1; stop-color:white"
           id="stop39" /><stop
           offset="1"
           style="stop-opacity:0; stop-color:white"
           id="stop41" /></linearGradient><rect
         style="fill:url(#id10)"
         x="1823"
         y="1980"
         width="79.363297"
         height="79.363297"
         id="rect44" /></mask><mask
       id="id11"><linearGradient
         id="id12"
         gradientUnits="userSpaceOnUse"
         x1="1688.62"
         y1="1897.63"
         x2="1667.62"
         y2="1865.88"><stop
           offset="0"
           style="stop-opacity:1; stop-color:white"
           id="stop47" /><stop
           offset="1"
           style="stop-opacity:0; stop-color:white"
           id="stop49" /></linearGradient><rect
         style="fill:url(#id12)"
         x="1669"
         y="1878"
         width="38.7528"
         height="38.7528"
         id="rect52" /></mask><mask
       id="id13"><linearGradient
         id="id14"
         gradientUnits="userSpaceOnUse"
         x1="1473.14"
         y1="1843.95"
         x2="1441.33"
         y2="1795.8199"><stop
           offset="0"
           style="stop-opacity:1; stop-color:white"
           id="stop55" /><stop
           offset="1"
           style="stop-opacity:0; stop-color:white"
           id="stop57" /></linearGradient><rect
         style="fill:url(#id14)"
         x="1444"
         y="1815"
         width="58.739799"
         height="58.739799"
         id="rect60" /></mask><mask
       id="id15"><linearGradient
         id="id16"
         gradientUnits="userSpaceOnUse"
         x1="1992.59"
         y1="1995.3101"
         x2="1960.77"
         y2="1947.1801"><stop
           offset="0"
           style="stop-opacity:1; stop-color:white"
           id="stop63" /><stop
           offset="1"
           style="stop-opacity:0; stop-color:white"
           id="stop65" /></linearGradient><rect
         style="fill:url(#id16)"
         x="1963"
         y="1966"
         width="58.739799"
         height="58.739799"
         id="rect68" /></mask><mask
       id="id17"><linearGradient
         id="id18"
         gradientUnits="userSpaceOnUse"
         x1="2583.1699"
         y1="1811.6"
         x2="2551.3501"
         y2="1763.47"><stop
           offset="0"
           style="stop-opacity:1; stop-color:white"
           id="stop71" /><stop
           offset="1"
           style="stop-opacity:0; stop-color:white"
           id="stop73" /></linearGradient><rect
         style="fill:url(#id18)"
         x="2554"
         y="1782"
         width="58.739799"
         height="58.739799"
         id="rect76" /></mask><mask
       id="id19"><linearGradient
         id="id20"
         gradientUnits="userSpaceOnUse"
         x1="1970.84"
         y1="1691.33"
         x2="1949.85"
         y2="1659.5699"><stop
           offset="0"
           style="stop-opacity:1; stop-color:white"
           id="stop79" /><stop
           offset="1"
           style="stop-opacity:0; stop-color:white"
           id="stop81" /></linearGradient><rect
         style="fill:url(#id20)"
         x="1951"
         y="1672"
         width="38.7528"
         height="38.7528"
         id="rect84" /></mask><mask
       id="id21"><linearGradient
         id="id22"
         gradientUnits="userSpaceOnUse"
         x1="2108"
         y1="1569.11"
         x2="2087"
         y2="1537.35"><stop
           offset="0"
           style="stop-opacity:1; stop-color:white"
           id="stop87" /><stop
           offset="1"
           style="stop-opacity:0; stop-color:white"
           id="stop89" /></linearGradient><rect
         style="fill:url(#id22)"
         x="2089"
         y="1550"
         width="38.7528"
         height="38.7528"
         id="rect92" /></mask><mask
       id="id23"><linearGradient
         id="id24"
         gradientUnits="userSpaceOnUse"
         x1="2213.21"
         y1="1654.12"
         x2="2192.22"
         y2="1622.36"><stop
           offset="0"
           style="stop-opacity:1; stop-color:white"
           id="stop95" /><stop
           offset="1"
           style="stop-opacity:0; stop-color:white"
           id="stop97" /></linearGradient><rect
         style="fill:url(#id24)"
         x="2194"
         y="1635"
         width="38.7528"
         height="38.7528"
         id="rect100" /></mask><mask
       id="id25"><linearGradient
         id="id26"
         gradientUnits="userSpaceOnUse"
         x1="2440.6899"
         y1="1926.59"
         x2="2419.6899"
         y2="1894.83"><stop
           offset="0"
           style="stop-opacity:1; stop-color:white"
           id="stop103" /><stop
           offset="1"
           style="stop-opacity:0; stop-color:white"
           id="stop105" /></linearGradient><rect
         style="fill:url(#id26)"
         x="2421"
         y="1907"
         width="38.7528"
         height="38.7528"
         id="rect108" /></mask><mask
       id="id27"><linearGradient
         id="id28"
         gradientUnits="userSpaceOnUse"
         x1="2908.1399"
         y1="1699.11"
         x2="2887.1499"
         y2="1667.36"><stop
           offset="0"
           style="stop-opacity:1; stop-color:white"
           id="stop111" /><stop
           offset="1"
           style="stop-opacity:0; stop-color:white"
           id="stop113" /></linearGradient><rect
         style="fill:url(#id28)"
         x="2889"
         y="1680"
         width="38.7528"
         height="38.7528"
         id="rect116" /></mask><mask
       id="id29"><linearGradient
         id="id30"
         gradientUnits="userSpaceOnUse"
         x1="3138.74"
         y1="1834.1"
         x2="3106.9299"
         y2="1785.97"><stop
           offset="0"
           style="stop-opacity:1; stop-color:white"
           id="stop119" /><stop
           offset="1"
           style="stop-opacity:0; stop-color:white"
           id="stop121" /></linearGradient><rect
         style="fill:url(#id30)"
         x="3109"
         y="1805"
         width="58.739799"
         height="58.739799"
         id="rect124" /></mask><mask
       id="id31"><linearGradient
         id="id32"
         gradientUnits="userSpaceOnUse"
         x1="3492.45"
         y1="1771.61"
         x2="3460.6299"
         y2="1723.47"><stop
           offset="0"
           style="stop-opacity:1; stop-color:white"
           id="stop127" /><stop
           offset="1"
           style="stop-opacity:0; stop-color:white"
           id="stop129" /></linearGradient><rect
         style="fill:url(#id32)"
         x="3463"
         y="1742"
         width="58.739799"
         height="58.739799"
         id="rect132" /></mask><mask
       id="id33"><linearGradient
         id="id34"
         gradientUnits="userSpaceOnUse"
         x1="3350.6001"
         y1="1974.09"
         x2="3329.6001"
         y2="1942.33"><stop
           offset="0"
           style="stop-opacity:1; stop-color:white"
           id="stop135" /><stop
           offset="1"
           style="stop-opacity:0; stop-color:white"
           id="stop137" /></linearGradient><rect
         style="fill:url(#id34)"
         x="3331"
         y="1955"
         width="38.7528"
         height="38.7528"
         id="rect140" /></mask></defs><g
     id="Слой_x0020_1"
     transform="translate(-1,-687.16555)"><metadata
       id="CorelCorpID_0Corel-Layer" /><g
       id="_2208207648896"><path
         class="fil0"
         d="m 603,888 v 635 c 0,73 30,140 78,188 48,49 115,79 189,79 h 524 v 82 H 870 c -97,0 -184,-39 -247,-102 -64,-63 -103,-151 -103,-247 V 888 Z"
         id="path146"
         inkscape:connector-curvature="0"
         style="fill:#c2e1ff;fill-opacity:0.5019609;fill-rule:nonzero" /><g
         id="g148" /><g
         clip-path="url(#id0)"
         id="g227"><g
           id="_2208207643488"><g
             id="g224"><path
               class="fil1"
               d="m 3032,1401 c 50,0 91,41 91,92 0,50 -41,91 -91,91 -51,0 -92,-41 -92,-91 0,-51 41,-92 92,-92 z"
               id="path150"
               inkscape:connector-curvature="0"
               style="fill:#5286c4;fill-opacity:0.90196102" /><path
               class="fil1"
               d="m 2466,1454 c 50,0 92,41 92,92 0,51 -42,92 -92,92 -51,0 -92,-41 -92,-92 0,-51 41,-92 92,-92 z"
               id="path152"
               inkscape:connector-curvature="0"
               style="fill:#5286c4;fill-opacity:0.90196102" /><path
               class="fil1"
               d="m 2476,2029 c 51,0 92,41 92,91 0,51 -41,92 -92,92 -51,0 -92,-41 -92,-92 0,-50 41,-91 92,-91 z"
               id="path154"
               inkscape:connector-curvature="0"
               style="fill:#5286c4;fill-opacity:0.90196102" /><path
               class="fil1"
               d="m 2541,1933 c 50,0 91,41 91,92 0,51 -41,92 -91,92 -51,0 -92,-41 -92,-92 0,-51 41,-92 92,-92 z"
               id="path156"
               inkscape:connector-curvature="0"
               style="fill:#5286c4;fill-opacity:0.90196102" /><path
               class="fil1"
               d="m 2940,1413 c 51,0 92,41 92,92 0,50 -41,91 -92,91 -50,0 -92,-41 -92,-91 0,-51 42,-92 92,-92 z"
               id="path158"
               inkscape:connector-curvature="0"
               style="fill:#5286c4;fill-opacity:0.90196102" /><path
               class="fil1"
               d="m 2782,1504 c 51,0 92,41 92,92 0,50 -41,91 -92,91 -51,0 -92,-41 -92,-91 0,-51 41,-92 92,-92 z"
               id="path160"
               inkscape:connector-curvature="0"
               style="fill:#5286c4;fill-opacity:0.90196102" /><path
               class="fil1"
               d="m 3030,2000 c 51,0 92,41 92,92 0,50 -41,91 -92,91 -50,0 -91,-41 -91,-91 0,-51 41,-92 91,-92 z"
               id="path162"
               inkscape:connector-curvature="0"
               style="fill:#5286c4;fill-opacity:0.90196102" /><path
               class="fil1"
               d="m 2859,1348 c 50,0 91,41 91,92 0,50 -41,91 -91,91 -51,0 -92,-41 -92,-91 0,-51 41,-92 92,-92 z"
               id="path164"
               inkscape:connector-curvature="0"
               style="fill:#5286c4;fill-opacity:0.90196102" /><path
               class="fil1"
               d="m 2822,1958 c 51,0 92,41 92,91 0,51 -41,92 -92,92 -51,0 -92,-41 -92,-92 0,-50 41,-91 92,-91 z"
               id="path166"
               inkscape:connector-curvature="0"
               style="fill:#5286c4;fill-opacity:0.90196102" /><path
               class="fil1"
               d="m 2743,2077 c 51,0 92,41 92,91 0,51 -41,92 -92,92 -51,0 -92,-41 -92,-92 0,-50 41,-91 92,-91 z"
               id="path168"
               inkscape:connector-curvature="0"
               style="fill:#5286c4;fill-opacity:0.90196102" /><path
               class="fil1"
               d="m 2434,1386 c 51,0 92,41 92,92 0,51 -41,92 -92,92 -51,0 -92,-41 -92,-92 0,-51 41,-92 92,-92 z"
               id="path170"
               inkscape:connector-curvature="0"
               style="fill:#5286c4;fill-opacity:0.90196102" /><path
               class="fil1"
               d="m 2336,1438 c 61,0 110,49 110,110 0,60 -49,109 -110,109 -60,0 -109,-49 -109,-109 0,-61 49,-110 109,-110 z"
               id="path172"
               inkscape:connector-curvature="0"
               style="fill:#5286c4;fill-opacity:0.90196102" /><path
               class="fil1"
               d="m 2359,2095 c 60,0 109,49 109,110 0,60 -49,109 -109,109 -61,0 -109,-49 -109,-109 0,-61 48,-110 109,-110 z"
               id="path174"
               inkscape:connector-curvature="0"
               style="fill:#5286c4;fill-opacity:0.90196102" /><path
               class="fil1"
               d="m 2676,1894 c 60,0 109,49 109,110 0,60 -49,109 -109,109 -61,0 -110,-49 -110,-109 0,-61 49,-110 110,-110 z"
               id="path176"
               inkscape:connector-curvature="0"
               style="fill:#5286c4;fill-opacity:0.90196102" /><path
               class="fil1"
               d="m 2633,1455 c 61,0 110,49 110,110 0,60 -49,109 -110,109 -60,0 -109,-49 -109,-109 0,-61 49,-110 109,-110 z"
               id="path178"
               inkscape:connector-curvature="0"
               style="fill:#5286c4;fill-opacity:0.90196102" /><path
               class="fil1"
               d="m 2540,1522 c 60,0 109,49 109,109 0,61 -49,110 -109,110 -61,0 -110,-49 -110,-110 0,-60 49,-109 110,-109 z"
               id="path180"
               inkscape:connector-curvature="0"
               style="fill:#5286c4;fill-opacity:0.90196102" /><path
               class="fil1"
               d="m 2609,2054 c 60,0 109,49 109,109 0,61 -49,110 -109,110 -61,0 -110,-49 -110,-110 0,-60 49,-109 110,-109 z"
               id="path182"
               inkscape:connector-curvature="0"
               style="fill:#5286c4;fill-opacity:0.90196102" /><path
               class="fil1"
               d="m 2708,1354 c 60,0 109,48 109,109 0,60 -49,109 -109,109 -61,0 -110,-49 -110,-109 0,-61 49,-109 110,-109 z"
               id="path184"
               inkscape:connector-curvature="0"
               style="fill:#5286c4;fill-opacity:0.90196102" /><path
               class="fil1"
               d="m 2252,1410 c 36,0 65,29 65,65 0,36 -29,65 -65,65 -36,0 -65,-29 -65,-65 0,-36 29,-65 65,-65 z"
               id="path186"
               inkscape:connector-curvature="0"
               style="fill:#5286c4;fill-opacity:0.90196102" /><path
               class="fil1"
               d="m 2947,1359 c 36,0 65,30 65,65 0,36 -29,65 -65,65 -36,0 -65,-29 -65,-65 0,-35 29,-65 65,-65 z"
               id="path188"
               inkscape:connector-curvature="0"
               style="fill:#5286c4;fill-opacity:0.90196102" /><path
               class="fil1"
               d="m 2546,1398 c 36,0 65,29 65,65 0,36 -29,65 -65,65 -36,0 -65,-29 -65,-65 0,-36 29,-65 65,-65 z"
               id="path190"
               inkscape:connector-curvature="0"
               style="fill:#5286c4;fill-opacity:0.90196102" /><path
               class="fil1"
               d="m 2388,1969 c 36,0 65,30 65,65 0,36 -29,65 -65,65 -36,0 -65,-29 -65,-65 0,-35 29,-65 65,-65 z"
               id="path192"
               inkscape:connector-curvature="0"
               style="fill:#5286c4;fill-opacity:0.90196102" /><path
               class="fil1"
               d="m 3088,1467 c 36,0 65,29 65,65 0,36 -29,65 -65,65 -36,0 -65,-29 -65,-65 0,-36 29,-65 65,-65 z"
               id="path194"
               inkscape:connector-curvature="0"
               style="fill:#5286c4;fill-opacity:0.90196102" /><path
               class="fil1"
               d="m 2918,2076 c 36,0 66,29 66,65 0,36 -30,65 -66,65 -35,0 -65,-29 -65,-65 0,-36 30,-65 65,-65 z"
               id="path196"
               inkscape:connector-curvature="0"
               style="fill:#5286c4;fill-opacity:0.90196102" /><path
               class="fil1"
               d="m 2864,1464 c 36,0 65,29 65,65 0,36 -29,65 -65,65 -36,0 -65,-29 -65,-65 0,-36 29,-65 65,-65 z"
               id="path198"
               inkscape:connector-curvature="0"
               style="fill:#5286c4;fill-opacity:0.90196102" /><path
               class="fil1"
               d="m 2431,1593 c 36,0 65,29 65,65 0,36 -29,65 -65,65 -36,0 -65,-29 -65,-65 0,-36 29,-65 65,-65 z"
               id="path200"
               inkscape:connector-curvature="0"
               style="fill:#5286c4;fill-opacity:0.90196102" /><path
               class="fil1"
               d="m 2486,2173 c 36,0 65,29 65,65 0,36 -29,65 -65,65 -36,0 -65,-29 -65,-65 0,-36 29,-65 65,-65 z"
               id="path202"
               inkscape:connector-curvature="0"
               style="fill:#5286c4;fill-opacity:0.90196102" /><path
               class="fil1"
               d="m 3069,2113 c 36,0 65,29 65,65 0,36 -29,65 -65,65 -36,0 -65,-29 -65,-65 0,-36 29,-65 65,-65 z"
               id="path204"
               inkscape:connector-curvature="0"
               style="fill:#5286c4;fill-opacity:0.90196102" /><path
               class="fil1"
               d="m 2226,2148 c 36,0 65,29 65,65 0,36 -29,65 -65,65 -36,0 -65,-29 -65,-65 0,-36 29,-65 65,-65 z"
               id="path206"
               inkscape:connector-curvature="0"
               style="fill:#5286c4;fill-opacity:0.90196102" /><path
               class="fil1"
               d="m 2337,2021 c 36,0 65,29 65,65 0,36 -29,65 -65,65 -36,0 -65,-29 -65,-65 0,-36 29,-65 65,-65 z"
               id="path208"
               inkscape:connector-curvature="0"
               style="fill:#5286c4;fill-opacity:0.90196102" /><path
               class="fil1"
               d="m 2835,2103 c 35,0 65,29 65,65 0,36 -30,65 -65,65 -36,0 -65,-29 -65,-65 0,-36 29,-65 65,-65 z"
               id="path210"
               inkscape:connector-curvature="0"
               style="fill:#5286c4;fill-opacity:0.90196102" /><path
               class="fil1"
               d="m 2962,2131 c 35,0 65,29 65,65 0,35 -30,65 -65,65 -36,0 -65,-30 -65,-65 0,-36 29,-65 65,-65 z"
               id="path212"
               inkscape:connector-curvature="0"
               style="fill:#5286c4;fill-opacity:0.90196102" /><path
               class="fil1"
               d="m 3133,2095 c 21,0 38,18 38,39 0,21 -17,38 -38,38 -21,0 -38,-17 -38,-38 0,-21 17,-39 38,-39 z"
               id="path214"
               inkscape:connector-curvature="0"
               style="fill:#5286c4;fill-opacity:0.90196102" /><path
               class="fil1"
               d="m 2139,2188 c 21,0 38,17 38,38 0,21 -17,39 -38,39 -21,0 -39,-18 -39,-39 0,-21 18,-38 39,-38 z"
               id="path216"
               inkscape:connector-curvature="0"
               style="fill:#5286c4;fill-opacity:0.90196102" /><path
               class="fil1"
               d="m 2925,2032 c 22,0 39,17 39,39 0,21 -17,38 -39,38 -21,0 -38,-17 -38,-38 0,-22 17,-39 38,-39 z"
               id="path218"
               inkscape:connector-curvature="0"
               style="fill:#5286c4;fill-opacity:0.90196102" /><path
               class="fil1"
               d="m 2216,1499 c 21,0 38,17 38,38 0,22 -17,39 -38,39 -22,0 -39,-17 -39,-39 0,-21 17,-38 39,-38 z"
               id="path220"
               inkscape:connector-curvature="0"
               style="fill:#5286c4;fill-opacity:0.90196102" /><path
               class="fil1"
               d="m 3137,1423 c 21,0 38,18 38,39 0,21 -17,38 -38,38 -21,0 -38,-17 -38,-38 0,-21 17,-39 38,-39 z"
               id="path222"
               inkscape:connector-curvature="0"
               style="fill:#5286c4;fill-opacity:0.90196102" /></g></g></g><polygon
         class="fil2"
         points="3400,2224 1875,2224 1875,1438 3400,1438 "
         id="polygon229"
         style="fill:none" /><circle
         class="fil2 str0"
         cx="562"
         cy="807"
         r="79"
         id="circle231"
         style="fill:none;stroke:#fefefe;stroke-width:82.66889954" /><path
         class="fil3"
         style="fill:#fefefe"
         d="m 1597,1753 c 22,0 40,18 40,40 0,22 -18,40 -40,40 -22,0 -39,-18 -39,-40 0,-22 17,-40 39,-40 z"
         mask="url(#id1)"
         id="path233"
         inkscape:connector-curvature="0" /><path
         class="fil4"
         d="m 1714,1645 c 48,0 87,39 87,87 0,47 -39,86 -87,86 -48,0 -86,-39 -86,-86 0,-48 38,-87 86,-87 z"
         id="path235"
         inkscape:connector-curvature="0"
         style="fill:#fefefe;fill-opacity:0.5019609" /><path
         class="fil4"
         d="m 2118,1974 c 34,0 63,28 63,63 0,35 -29,63 -63,63 -35,0 -63,-28 -63,-63 0,-35 28,-63 63,-63 z"
         id="path237"
         inkscape:connector-curvature="0"
         style="fill:#fefefe;fill-opacity:0.5019609" /><path
         class="fil4"
         d="m 2156,1646 c 48,0 87,39 87,86 0,48 -39,87 -87,87 -48,0 -86,-39 -86,-87 0,-47 38,-86 86,-86 z"
         id="path239"
         inkscape:connector-curvature="0"
         style="fill:#fefefe;fill-opacity:0.5019609" /><path
         class="fil4"
         d="m 2017,1772 c 38,0 69,31 69,69 0,38 -31,69 -69,69 -38,0 -68,-31 -68,-69 0,-38 30,-69 68,-69 z"
         id="path241"
         inkscape:connector-curvature="0"
         style="fill:#fefefe;fill-opacity:0.5019609" /><path
         class="fil4"
         d="m 2941,1690 c 38,0 69,31 69,69 0,38 -31,68 -69,68 -38,0 -68,-30 -68,-68 0,-38 30,-69 68,-69 z"
         id="path243"
         inkscape:connector-curvature="0"
         style="fill:#fefefe;fill-opacity:0.5019609" /><path
         class="fil4"
         d="m 3289,1540 c 38,0 69,31 69,69 0,38 -31,68 -69,68 -38,0 -69,-30 -69,-68 0,-38 31,-69 69,-69 z"
         id="path245"
         inkscape:connector-curvature="0"
         style="fill:#fefefe;fill-opacity:0.5019609" /><path
         class="fil4"
         d="m 1765,1752 c 29,0 52,23 52,53 0,29 -23,52 -52,52 -29,0 -53,-23 -53,-52 0,-30 24,-53 53,-53 z"
         id="path247"
         inkscape:connector-curvature="0"
         style="fill:#fefefe;fill-opacity:0.5019609" /><path
         class="fil4"
         d="m 1576,1801 c 38,0 69,31 69,69 0,38 -31,68 -69,68 -38,0 -69,-30 -69,-68 0,-38 31,-69 69,-69 z"
         id="path249"
         inkscape:connector-curvature="0"
         style="fill:#fefefe;fill-opacity:0.5019609" /><path
         class="fil4"
         d="m 2152,1835 c 28,0 50,23 50,51 0,28 -22,50 -50,50 -28,0 -51,-22 -51,-50 0,-28 23,-51 51,-51 z"
         id="path251"
         inkscape:connector-curvature="0"
         style="fill:#fefefe;fill-opacity:0.5019609" /><path
         class="fil4"
         d="m 2752,1754 c 18,0 33,15 33,33 0,18 -15,33 -33,33 -18,0 -33,-15 -33,-33 0,-18 15,-33 33,-33 z"
         id="path253"
         inkscape:connector-curvature="0"
         style="fill:#fefefe;fill-opacity:0.5019609" /><path
         class="fil4"
         d="m 1909,1813 c 60,0 108,48 108,108 0,60 -48,109 -108,109 -60,0 -109,-49 -109,-109 0,-60 49,-108 109,-108 z"
         id="path255"
         inkscape:connector-curvature="0"
         style="fill:#fefefe;fill-opacity:0.5019609" /><path
         class="fil4"
         d="m 1938,1533 c 60,0 108,48 108,108 0,60 -48,109 -108,109 -60,0 -109,-49 -109,-109 0,-60 49,-108 109,-108 z"
         id="path257"
         inkscape:connector-curvature="0"
         style="fill:#fefefe;fill-opacity:0.5019609" /><path
         class="fil4"
         d="m 3155,1759 c 60,0 109,48 109,108 0,60 -49,109 -109,109 -60,0 -108,-49 -108,-109 0,-60 48,-108 108,-108 z"
         id="path259"
         inkscape:connector-curvature="0"
         style="fill:#fefefe;fill-opacity:0.5019609" /><path
         class="fil4"
         d="m 2270,1738 c 72,0 131,58 131,130 0,72 -59,131 -131,131 -72,0 -130,-59 -130,-131 0,-72 58,-130 130,-130 z"
         id="path261"
         inkscape:connector-curvature="0"
         style="fill:#fefefe;fill-opacity:0.5019609" /><path
         class="fil4"
         d="m 3318,1787 c 72,0 130,58 130,130 0,72 -58,131 -130,131 -72,0 -131,-59 -131,-131 0,-72 59,-130 131,-130 z"
         id="path263"
         inkscape:connector-curvature="0"
         style="fill:#fefefe;fill-opacity:0.5019609" /><path
         class="fil4"
         d="m 1723,1943 c 36,0 65,29 65,65 0,36 -29,65 -65,65 -37,0 -66,-29 -66,-65 0,-36 29,-65 66,-65 z"
         id="path265"
         inkscape:connector-curvature="0"
         style="fill:#fefefe;fill-opacity:0.5019609" /><path
         class="fil4"
         d="m 2640,1743 c 36,0 66,29 66,65 0,36 -30,66 -66,66 -36,0 -65,-30 -65,-66 0,-36 29,-65 65,-65 z"
         id="path267"
         inkscape:connector-curvature="0"
         style="fill:#fefefe;fill-opacity:0.5019609" /><path
         class="fil3"
         style="fill:#fefefe"
         d="m 2384,1764 c 22,0 40,18 40,40 0,22 -18,40 -40,40 -22,0 -40,-18 -40,-40 0,-22 18,-40 40,-40 z"
         mask="url(#id3)"
         id="path269"
         inkscape:connector-curvature="0" /><path
         class="fil3"
         style="fill:#fefefe"
         d="m 2831,1834 c 22,0 39,18 39,40 0,22 -17,40 -39,40 -22,0 -40,-18 -40,-40 0,-22 18,-40 40,-40 z"
         mask="url(#id5)"
         id="path271"
         inkscape:connector-curvature="0" /><path
         class="fil3"
         style="fill:#fefefe"
         d="m 3241,1637 c 22,0 40,18 40,40 0,22 -18,39 -40,39 -22,0 -40,-17 -40,-39 0,-22 18,-40 40,-40 z"
         mask="url(#id7)"
         id="path273"
         inkscape:connector-curvature="0" /><path
         class="fil3"
         style="fill:#fefefe"
         d="m 1863,1980 c 22,0 39,18 39,40 0,22 -17,39 -39,39 -22,0 -40,-17 -40,-39 0,-22 18,-40 40,-40 z"
         mask="url(#id9)"
         id="path275"
         inkscape:connector-curvature="0" /><path
         class="fil3"
         style="fill:#fefefe"
         d="m 1689,1878 c 10,0 19,9 19,20 0,10 -9,19 -19,19 -11,0 -20,-9 -20,-19 0,-11 9,-20 20,-20 z"
         mask="url(#id11)"
         id="path277"
         inkscape:connector-curvature="0" /><path
         class="fil3"
         style="fill:#fefefe"
         d="m 1473,1815 c 16,0 30,13 30,29 0,16 -14,29 -30,29 -16,0 -29,-13 -29,-29 0,-16 13,-29 29,-29 z"
         mask="url(#id13)"
         id="path279"
         inkscape:connector-curvature="0" /><path
         class="fil3"
         style="fill:#fefefe"
         d="m 1993,1966 c 16,0 29,13 29,29 0,17 -13,30 -29,30 -17,0 -30,-13 -30,-30 0,-16 13,-29 30,-29 z"
         mask="url(#id15)"
         id="path281"
         inkscape:connector-curvature="0" /><path
         class="fil3"
         style="fill:#fefefe"
         d="m 2583,1782 c 16,0 30,13 30,30 0,16 -14,29 -30,29 -16,0 -29,-13 -29,-29 0,-17 13,-30 29,-30 z"
         mask="url(#id17)"
         id="path283"
         inkscape:connector-curvature="0" /><path
         class="fil3"
         style="fill:#fefefe"
         d="m 1971,1672 c 11,0 19,9 19,19 0,11 -8,20 -19,20 -11,0 -20,-9 -20,-20 0,-10 9,-19 20,-19 z"
         mask="url(#id19)"
         id="path285"
         inkscape:connector-curvature="0" /><path
         class="fil3"
         style="fill:#fefefe"
         d="m 2108,1550 c 11,0 19,8 19,19 0,11 -8,19 -19,19 -11,0 -19,-8 -19,-19 0,-11 8,-19 19,-19 z"
         mask="url(#id21)"
         id="path287"
         inkscape:connector-curvature="0" /><path
         class="fil3"
         style="fill:#fefefe"
         d="m 2213,1635 c 11,0 20,8 20,19 0,11 -9,19 -20,19 -10,0 -19,-8 -19,-19 0,-11 9,-19 19,-19 z"
         mask="url(#id23)"
         id="path289"
         inkscape:connector-curvature="0" /><path
         class="fil3"
         style="fill:#fefefe"
         d="m 2441,1907 c 10,0 19,9 19,20 0,10 -9,19 -19,19 -11,0 -20,-9 -20,-19 0,-11 9,-20 20,-20 z"
         mask="url(#id25)"
         id="path291"
         inkscape:connector-curvature="0" /><path
         class="fil3"
         style="fill:#fefefe"
         d="m 2908,1680 c 11,0 20,8 20,19 0,11 -9,19 -20,19 -11,0 -19,-8 -19,-19 0,-11 8,-19 19,-19 z"
         mask="url(#id27)"
         id="path293"
         inkscape:connector-curvature="0" /><path
         class="fil5"
         d="m 1045,1782 h 167 c 14,0 25,22 25,49 v 0 c 0,27 -11,49 -25,49 h -167 c -32,0 -32,-98 0,-98 z"
         id="path295"
         inkscape:connector-curvature="0"
         style="fill:#898989" /><path
         class="fil2 str1"
         d="m 1,1438 h 256 c 70,0 126,-57 126,-126 v -256 m 343,0 v 256 c 0,69 56,126 126,126 h 2749"
         id="path297"
         inkscape:connector-curvature="0"
         style="fill:none;stroke:#5489c7;stroke-width:23.61969948" /><line
         class="fil2 str1"
         x1="1"
         y1="2224"
         x2="3601"
         y2="2224"
         id="line299"
         style="fill:none;stroke:#5489c7;stroke-width:23.61969948" /><path
         class="fil3"
         d="m 1394,1744 c 27,-2 27,176 0,174 0,0 -1,0 -1,0 -67,-8 -174,-34 -240,-25 0,0 0,0 0,0 -19,1 -19,-125 0,-124 0,0 0,0 0,0 66,8 173,-17 240,-25 0,0 1,0 1,0 z"
         id="path301"
         inkscape:connector-curvature="0"
         style="fill:#fefefe" /><path
         class="fil3"
         style="fill:#fefefe"
         d="m 3139,1805 c 16,0 29,13 29,29 0,16 -13,29 -29,29 -16,0 -30,-13 -30,-29 0,-16 14,-29 30,-29 z"
         mask="url(#id29)"
         id="path303"
         inkscape:connector-curvature="0" /><path
         class="fil3"
         style="fill:#fefefe"
         d="m 3492,1742 c 17,0 30,13 30,30 0,16 -13,29 -30,29 -16,0 -29,-13 -29,-29 0,-17 13,-30 29,-30 z"
         mask="url(#id31)"
         id="path305"
         inkscape:connector-curvature="0" /><path
         class="fil3"
         style="fill:#fefefe"
         d="m 3351,1955 c 10,0 19,8 19,19 0,11 -9,19 -19,19 -11,0 -20,-8 -20,-19 0,-11 9,-19 20,-19 z"
         mask="url(#id33)"
         id="path307"
         inkscape:connector-curvature="0" /></g></g></svg>