<?xml version="1.0" encoding="UTF-8" standalone="no"?>
<!-- Creator: CorelDRAW X8 -->

<svg
   xmlns:dc="http://purl.org/dc/elements/1.1/"
   xmlns:cc="http://creativecommons.org/ns#"
   xmlns:rdf="http://www.w3.org/1999/02/22-rdf-syntax-ns#"
   xmlns:svg="http://www.w3.org/2000/svg"
   xmlns="http://www.w3.org/2000/svg"
   xmlns:sodipodi="http://sodipodi.sourceforge.net/DTD/sodipodi-0.dtd"
   xmlns:inkscape="http://www.inkscape.org/namespaces/inkscape"
   xml:space="preserve"
   width="1185"
   height="268"
   version="1.1"
   style="clip-rule:evenodd;fill-rule:evenodd;image-rendering:optimizeQuality;shape-rendering:geometricPrecision;text-rendering:geometricPrecision"
   viewBox="0 0 1185 268"
   id="svg16"
   sodipodi:docname="logo_white.svg"
   inkscape:version="0.92.1 r15371"><metadata
     id="metadata20"><rdf:RDF><cc:Work
         rdf:about=""><dc:format>image/svg+xml</dc:format><dc:type
           rdf:resource="http://purl.org/dc/dcmitype/StillImage" /><dc:title></dc:title></cc:Work></rdf:RDF></metadata><sodipodi:namedview
     pagecolor="#ffffff"
     bordercolor="#666666"
     borderopacity="1"
     objecttolerance="10"
     gridtolerance="10"
     guidetolerance="10"
     inkscape:pageopacity="0"
     inkscape:pageshadow="2"
     inkscape:window-width="1047"
     inkscape:window-height="585"
     id="namedview18"
     showgrid="false"
     inkscape:pagecheckerboard="true"
     fit-margin-top="0"
     fit-margin-left="0"
     fit-margin-right="0"
     fit-margin-bottom="0"
     inkscape:zoom="0.29253272"
     inkscape:cx="592.5"
     inkscape:cy="134.5"
     inkscape:window-x="0"
     inkscape:window-y="0"
     inkscape:window-maximized="0"
     inkscape:current-layer="svg16" /><defs
     id="defs4"><style
       type="text/css"
       id="style2"><![CDATA[
    .fil1 {fill:white}
    .fil0 {fill:white;fill-rule:nonzero}
   ]]></style></defs><g
     id="Слой_x0020_1"
     transform="translate(-57,-8)"><metadata
       id="CorelCorpID_0Corel-Layer" /><g
       id="_2186077478432"><g
         id="_2208561818656"><path
           class="fil0"
           d="m 406,183 h 24 v -22 l 8,-11 22,33 h 28 l -33,-49 32,-37 h -29 l -28,35 V 97 h -24 z m 108,1 c 7,0 15,-3 18,-8 v 7 h 24 v -39 c 0,-9 -2,-16 -7,-21 -5,-5 -14,-8 -25,-8 -12,0 -21,3 -28,5 l 5,17 c 6,-3 11,-4 19,-4 9,0 12,4 12,11 v 1 c -3,-1 -10,-2 -16,-2 -15,0 -25,6 -25,20 0,14 9,21 23,21 z m 7,-15 c -5,0 -7,-2 -7,-6 0,-6 3,-9 10,-9 3,0 7,0 8,1 v 4 c 0,7 -3,10 -11,10 z m 46,14 h 24 v -24 h 19 v 24 h 24 v -66 h -24 v 23 h -19 v -23 h -24 z m 98,1 c 9,0 15,-3 20,-8 v 7 h 23 v -39 c 0,-9 -3,-16 -8,-21 -5,-5 -12,-8 -25,-8 -11,0 -19,3 -26,5 l 4,17 c 6,-3 12,-4 18,-4 9,0 14,4 14,11 v 1 c -4,-1 -10,-2 -16,-2 -16,0 -26,6 -26,20 0,14 10,21 22,21 z m 9,-15 c -5,0 -9,-2 -9,-6 0,-6 4,-9 11,-9 3,0 7,0 9,1 v 4 c 0,7 -5,10 -11,10 z m 51,15 c 14,0 25,-7 25,-47 v -2 h 13 v 48 h 22 v -66 h -57 v 12 c 0,34 -4,37 -9,37 0,0 -1,0 -4,-2 v 19 c 3,0 8,1 10,1 z m 106,0 c 15,0 23,-6 30,-15 l -17,-11 c -3,4 -7,6 -12,6 -8,0 -14,-6 -14,-15 0,-7 5,-15 14,-15 5,0 9,3 12,8 l 15,-12 c -5,-10 -15,-15 -27,-15 -21,0 -36,15 -36,34 0,20 15,35 35,35 z m 70,0 c 14,0 22,-5 30,-13 l -14,-10 c -5,5 -9,6 -15,6 -6,0 -13,-4 -14,-10 h 45 c 0,-3 0,-4 0,-5 0,-20 -11,-37 -33,-37 -21,0 -34,15 -34,34 0,22 15,35 35,35 z m -13,-40 c 1,-7 5,-12 12,-12 6,0 10,5 11,12 z m 55,59 h 23 v -29 c 5,5 10,10 20,10 16,0 30,-12 30,-35 0,-21 -14,-34 -30,-34 -10,0 -15,4 -20,10 v -8 h -23 z m 37,-39 c -8,0 -14,-6 -14,-15 0,-9 6,-15 14,-15 7,0 14,6 14,15 0,10 -7,15 -14,15 z m 46,19 h 39 c 16,0 25,-7 25,-19 0,-9 -4,-14 -13,-16 7,-3 11,-8 11,-15 0,-4 -2,-8 -4,-10 -4,-5 -10,-6 -19,-6 h -39 z m 23,-15 v -13 h 10 c 5,0 8,3 8,7 0,4 -3,6 -8,6 z m 0,-25 v -11 h 8 c 5,0 8,2 8,5 0,3 -3,6 -9,6 z m 52,40 h 22 l 22,-34 v 34 h 23 v -66 h -23 l -21,32 v -32 h -23 z m 111,1 c 15,0 23,-6 30,-15 l -17,-11 c -3,4 -6,6 -12,6 -8,0 -13,-6 -13,-15 0,-7 5,-15 14,-15 5,0 9,3 11,8 l 17,-12 c -7,-10 -15,-15 -29,-15 -21,0 -35,15 -35,34 0,20 14,35 34,35 z"
           id="path7"
           inkscape:connector-curvature="0"
           style="fill:#ffffff;fill-rule:nonzero" /><path
           class="fil1"
           d="m 191,8 c 74,0 135,60 135,134 0,74 -61,134 -135,134 C 117,276 57,216 57,142 57,68 117,8 191,8 Z m 0,18 c 64,0 116,52 116,116 0,64 -52,115 -116,115 C 128,257 76,206 76,142 76,78 128,26 191,26 Z"
           id="path9"
           inkscape:connector-curvature="0"
           style="fill:#ffffff" /><path
           class="fil1"
           d="m 285,164 c -13,5 -28,9 -42,9 -29,0 -59,-19 -88,-19 -19,0 -38,8 -56,14 11,40 49,70 92,70 46,0 84,-31 94,-74 z"
           id="path11"
           inkscape:connector-curvature="0"
           style="fill:#ffffff" /></g></g></g></svg>