<?xml version="1.0" encoding="UTF-8" standalone="no"?>
<!-- Creator: CorelDRAW X8 -->

<svg
   xmlns:dc="http://purl.org/dc/elements/1.1/"
   xmlns:cc="http://creativecommons.org/ns#"
   xmlns:rdf="http://www.w3.org/1999/02/22-rdf-syntax-ns#"
   xmlns:svg="http://www.w3.org/2000/svg"
   xmlns="http://www.w3.org/2000/svg"
   xmlns:sodipodi="http://sodipodi.sourceforge.net/DTD/sodipodi-0.dtd"
   xmlns:inkscape="http://www.inkscape.org/namespaces/inkscape"
   xml:space="preserve"
   width="945"
   height="214"
   version="1.1"
   style="clip-rule:evenodd;fill-rule:evenodd;image-rendering:optimizeQuality;shape-rendering:geometricPrecision;text-rendering:geometricPrecision"
   viewBox="0 0 945 214"
   id="svg20"
   sodipodi:docname="logo.svg"
   inkscape:version="0.92.1 r15371"><metadata
     id="metadata24"><rdf:RDF><cc:Work
         rdf:about=""><dc:format>image/svg+xml</dc:format><dc:type
           rdf:resource="http://purl.org/dc/dcmitype/StillImage" /><dc:title></dc:title></cc:Work></rdf:RDF></metadata><sodipodi:namedview
     pagecolor="#ffffff"
     bordercolor="#666666"
     borderopacity="1"
     objecttolerance="10"
     gridtolerance="10"
     guidetolerance="10"
     inkscape:pageopacity="0"
     inkscape:pageshadow="2"
     inkscape:window-width="640"
     inkscape:window-height="480"
     id="namedview22"
     showgrid="false"
     fit-margin-top="0"
     fit-margin-left="0"
     fit-margin-right="0"
     fit-margin-bottom="0"
     inkscape:zoom="0.4021164"
     inkscape:cx="472.5"
     inkscape:cy="107"
     inkscape:window-x="0"
     inkscape:window-y="0"
     inkscape:window-maximized="0"
     inkscape:current-layer="svg20" /><defs
     id="defs9"><style
       type="text/css"
       id="style2"><![CDATA[
    .fil1 {fill:#353C41}
    .fil0 {fill:#353C41;fill-rule:nonzero}
    .fil2 {fill:url(#id0)}
   ]]></style><linearGradient
       id="id0"
       gradientUnits="userSpaceOnUse"
       x1="107.502"
       y1="188.963"
       x2="107.502"
       y2="122.477"><stop
         offset="0"
         style="stop-opacity:1; stop-color:#264F99"
         id="stop4" /><stop
         offset="1"
         style="stop-opacity:1; stop-color:#2960A2"
         id="stop6" /></linearGradient></defs><g
     id="Слой_x0020_1"
     transform="translate(0,-5)"><metadata
       id="CorelCorpID_0Corel-Layer" /><g
       id="_2208561818656"><path
         class="fil0"
         d="m 278,145 h 19 v -18 l 7,-8 17,26 h 23 l -27,-39 26,-30 h -23 l -23,28 V 76 h -19 z m 86,1 c 6,0 12,-3 15,-7 v 6 h 19 v -31 c 0,-7 -2,-13 -6,-17 -4,-4 -11,-6 -20,-6 -9,0 -16,2 -22,4 l 4,13 c 5,-2 9,-3 15,-3 7,0 10,3 10,9 v 1 c -3,-1 -8,-2 -13,-2 -12,0 -20,5 -20,16 0,11 7,17 18,17 z m 6,-12 c -4,0 -6,-2 -6,-5 0,-5 3,-7 8,-7 3,0 6,0 7,1 v 3 c 0,5 -3,8 -9,8 z m 37,11 h 19 v -19 h 15 v 19 h 19 V 92 h -19 v 19 H 426 V 92 h -19 z m 78,1 c 7,0 12,-3 16,-7 v 6 h 18 v -31 c 0,-7 -2,-13 -6,-17 -4,-4 -10,-6 -20,-6 -9,0 -15,2 -21,4 l 3,13 c 5,-2 10,-3 15,-3 7,0 11,3 11,9 v 1 c -3,-1 -8,-2 -13,-2 -13,0 -21,5 -21,16 0,11 8,17 18,17 z m 7,-12 c -4,0 -7,-2 -7,-5 0,-5 3,-7 9,-7 2,0 5,0 7,1 v 3 c 0,5 -4,8 -9,8 z m 41,12 c 11,0 20,-6 20,-38 v -1 h 10 v 38 h 18 V 92 h -46 v 10 c 0,27 -3,29 -7,29 0,0 -1,0 -3,-1 v 15 c 2,0 6,1 8,1 z m 84,0 c 12,0 19,-5 24,-12 l -13,-9 c -3,3 -6,5 -10,5 -6,0 -11,-5 -11,-12 0,-6 4,-12 11,-12 4,0 7,2 10,6 l 12,-9 c -4,-8 -12,-12 -22,-12 -17,0 -29,12 -29,27 0,16 12,28 28,28 z m 56,0 c 11,0 18,-4 24,-11 l -11,-8 c -4,4 -7,5 -12,5 -5,0 -10,-3 -11,-8 h 36 c 0,-2 0,-3 0,-4 0,-16 -9,-29 -27,-29 -16,0 -27,12 -27,27 0,17 12,28 28,28 z m -10,-32 c 1,-6 4,-10 9,-10 5,0 8,4 9,10 z m 44,47 h 18 v -23 c 4,4 8,8 16,8 13,0 24,-10 24,-28 0,-17 -11,-27 -24,-27 -8,0 -12,3 -16,8 v -7 h -18 z m 29,-31 c -6,0 -11,-5 -11,-12 0,-7 5,-12 11,-12 6,0 11,5 11,12 0,8 -5,12 -11,12 z m 37,15 h 31 c 13,0 20,-6 20,-15 0,-7 -3,-11 -10,-13 5,-2 8,-6 8,-12 0,-3 -1,-6 -3,-8 -3,-4 -8,-5 -15,-5 h -31 z m 18,-12 v -10 h 8 c 4,0 7,2 7,5 0,3 -3,5 -7,5 z m 0,-20 v -9 h 7 c 4,0 6,2 6,4 0,3 -2,5 -7,5 z m 42,32 h 17 l 18,-27 v 27 h 18 V 92 h -18 l -17,26 V 92 h -18 z m 88,1 c 12,0 19,-5 24,-12 l -13,-9 c -3,3 -5,5 -10,5 -6,0 -10,-5 -10,-12 0,-6 4,-12 11,-12 4,0 7,2 9,6 l 13,-9 c -5,-8 -12,-12 -23,-12 -17,0 -28,12 -28,27 0,16 11,28 27,28 z"
         id="path12"
         inkscape:connector-curvature="0"
         style="fill:#353c41;fill-rule:nonzero" /><path
         class="fil1"
         d="m 107,5 c 59,0 107,48 107,107 0,59 -48,107 -107,107 C 48,219 0,171 0,112 0,53 48,5 107,5 Z m 0,15 c 51,0 92,41 92,92 0,51 -41,92 -92,92 -51,0 -92,-41 -92,-92 0,-51 41,-92 92,-92 z"
         id="path14"
         inkscape:connector-curvature="0"
         style="fill:#353c41" /><path
         class="fil2"
         d="m 182,130 c -11,4 -23,7 -34,7 -23,0 -47,-15 -70,-15 -15,0 -30,6 -45,11 9,32 39,56 74,56 36,0 67,-25 75,-59 z"
         id="path16"
         inkscape:connector-curvature="0"
         style="fill:url(#id0)" /></g></g></svg>