<svg xmlns="http://www.w3.org/2000/svg" width="26" height="20" viewBox="0 0 26 20">
    <g fill="none" fill-rule="nonzero" stroke="#242C33">
        <path d="M12.933 5.283v6.521H4.9a1.5 1.5 0 0 1-1.5-1.5V1a.5.5 0 0 0-.5-.5H1a.5.5 0 0 0-.5.5v18a.5.5 0 0 0 .5.5h1.9a.5.5 0 0 0 .5-.5v-2.783a1.5 1.5 0 0 1 1.5-1.5h16.2a1.5 1.5 0 0 1 1.5 1.5V19a.5.5 0 0 0 .5.5H25a.5.5 0 0 0 .5-.5v-7.26l.001-.401c-.225-3.285-2.967-6.056-6.001-6.056h-6.567z"/>
        <path d="M9 10c1.114 0 2-.886 2-2 0-1.114-.886-2-2-2-1.114 0-2 .886-2 2 0 1.114.886 2 2 2z"/>
    </g>
</svg>
