<svg xmlns="http://www.w3.org/2000/svg" width="15" height="25" viewBox="0 0 15 25">
    <g fill="#242C33" fill-rule="nonzero">
        <path d="M7.5 0C3.364 0 0 3.485 0 7.768c0 5.357 4.848 12.908 7 16.445.139.228.43.297.65.153a.499.499 0 0 0 .148-.674C4.019 17.481.943 11.82.943 7.768.943 4.023 3.885.977 7.5.977s6.557 3.046 6.557 6.79c0 6.082-6.86 15.67-6.93 15.763a.5.5 0 0 0 .085.685.459.459 0 0 0 .661-.088C8.164 23.737 15 14.183 15 7.767 15 3.486 11.635 0 7.5 0z"/>
        <path d="M7.5 4.99a.495.495 0 0 0 0-.99C5.57 4 4 5.57 4 7.5S5.57 11 7.5 11 11 9.43 11 7.5a3.47 3.47 0 0 0-.71-2.115.495.495 0 0 0-.79.599c.334.439.51.963.51 1.516a2.513 2.513 0 0 1-2.51 2.51A2.513 2.513 0 0 1 4.99 7.5 2.513 2.513 0 0 1 7.5 4.99z"/>
    </g>
</svg>
