<svg xmlns="http://www.w3.org/2000/svg" width="20" height="20" viewBox="0 0 20 20">
    <path fill="none" fill-rule="evenodd" stroke="#242C33" stroke-linecap="round" d="M18.596 15.237l-2.78-2.786c-.553-.553-1.47-.536-2.043.038L11.125 14.5l-.276-.154c-.885-.491-2.095-1.164-3.369-2.442-1.277-1.28-1.95-2.495-2.441-3.382l-.15-.27 2.187-1.549.462-.464c.574-.575.59-1.494.037-2.048l-2.78-2.787c-.552-.553-1.47-.536-2.043.039l-.784.79c-.241.357-.46.744-.624 1.162a4.74 4.74 0 0 0-.287 1.158c-.367 3.05 1.023 5.837 4.797 9.62 5.217 5.227 9.42 4.832 9.602 4.813a4.688 4.688 0 0 0 1.158-.291c.413-.162.8-.382 1.135-.645l.81-.763c.573-.576.59-1.495.037-2.05z"/>
</svg>
