<svg xmlns="http://www.w3.org/2000/svg" width="23" height="19" viewBox="0 0 23 19">
    <g fill="none" fill-rule="evenodd">
        <path d="M.5 1.5l5.377 2.878-.69-2.878H.5zm7.187 10.437H20L5.877 4.378l1.81 7.56z"/>
        <path stroke="#FFF" stroke-linecap="round" d="M.5 1.5h4.687l2.5 10.438H20"/>
        <path d="M11.5 16.625a1.687 1.687 0 1 1-3.375 0 1.687 1.687 0 0 1 3.375 0"/>
        <path stroke="#FFF" stroke-linecap="round" d="M11.5 16.625a1.687 1.687 0 1 1-3.375 0 1.687 1.687 0 0 1 3.375 0z"/>
        <path d="M20 16.625a1.687 1.687 0 1 1-3.375 0 1.687 1.687 0 0 1 3.375 0"/>
        <path stroke="#FFF" stroke-linecap="round" d="M20 16.625a1.687 1.687 0 1 1-3.375 0 1.687 1.687 0 0 1 3.375 0z"/>
        <path d="M6.385 5.27h16.449"/>
        <path stroke="#FFF" stroke-linecap="round" d="M6.385 5.27h16.449"/>
        <path d="M7.427 8.469h14.039"/>
        <path stroke="#FFF" stroke-linecap="round" d="M7.427 8.469h14.039"/>
    </g>
</svg>
